<svg width="477" height="651" viewBox="0 0 477 651" fill="none" xmlns="http://www.w3.org/2000/svg">
<g opacity="0.7">
<path d="M89.043 601.549C207.767 667.318 400.251 667.318 518.975 601.549C637.699 535.78 637.699 429.159 518.975 363.39C400.251 297.621 207.767 297.637 89.043 363.39C-29.681 429.144 -29.681 535.78 89.043 601.549Z" fill="#F5F5F5"/>
<path d="M361.501 513.368L261.464 570.713C260.425 571.242 259.276 571.518 258.11 571.518C256.944 571.518 255.795 571.242 254.756 570.713L47.9896 451.324C47.5859 451.187 47.2352 450.927 46.9868 450.581C46.7384 450.234 46.6049 449.819 46.6049 449.392C46.6049 448.966 46.7384 448.55 46.9868 448.204C47.2352 447.857 47.5859 447.597 47.9896 447.46L154.564 386.22C155.598 385.698 156.742 385.434 157.899 385.45C159.057 385.466 160.193 385.762 161.211 386.313L361.563 509.427C361.963 509.582 362.305 509.856 362.545 510.212C362.785 510.569 362.909 510.99 362.903 511.419C362.896 511.848 362.758 512.265 362.507 512.613C362.257 512.962 361.905 513.225 361.501 513.368Z" fill="#E0E0E0"/>
<path d="M462.372 541.685L568.7 480.321C569.102 480.18 569.45 479.918 569.696 479.57C569.943 479.223 570.075 478.807 570.075 478.381C570.075 477.955 569.943 477.54 569.696 477.193C569.45 476.845 569.102 476.583 568.7 476.442L462.697 414.846C461.659 414.321 460.513 414.047 459.35 414.047C458.187 414.047 457.041 414.321 456.004 414.846L349.352 476.457C348.948 476.594 348.597 476.854 348.349 477.201C348.1 477.547 347.967 477.963 347.967 478.389C347.967 478.815 348.1 479.231 348.349 479.578C348.597 479.924 348.948 480.184 349.352 480.321L455.679 541.685C456.716 542.21 457.863 542.484 459.026 542.484C460.188 542.484 461.335 542.21 462.372 541.685Z" fill="#E0E0E0"/>
<path d="M180.331 593.852C150.206 593.852 125.784 579.312 125.784 561.377C125.784 543.442 150.206 528.902 180.331 528.902C210.457 528.902 234.878 543.442 234.878 561.377C234.878 579.312 210.457 593.852 180.331 593.852Z" fill="#E0E0E0"/>
<path d="M103.078 556.523C73.2425 556.523 49.0562 542.122 49.0562 524.358C49.0562 506.593 73.2425 492.192 103.078 492.192C132.913 492.192 157.099 506.593 157.099 524.358C157.099 542.122 132.913 556.523 103.078 556.523Z" fill="#E0E0E0"/>
<path d="M57.7273 407.21C57.7273 407.21 58.8093 391.197 53.2449 377.58C47.6804 363.962 38.329 354.394 28.5139 351.782C18.6988 349.17 8.88371 356.883 18.436 365.168C27.9884 373.453 45.8256 383.391 50.2462 408.648L57.7273 407.21Z" fill="#F42355"/>
<path opacity="0.15" d="M57.7273 407.21C57.7273 407.21 58.8093 391.197 53.2449 377.58C47.6804 363.962 38.329 354.394 28.5139 351.782C18.6988 349.17 8.88371 356.883 18.436 365.168C27.9884 373.453 45.8256 383.391 50.2462 408.648L57.7273 407.21Z" fill="black"/>
<path d="M55.4861 402.573H55.5943C55.734 402.543 55.8568 402.461 55.9374 402.343C56.018 402.225 56.0501 402.081 56.0271 401.94C50.2308 373.994 32.1153 359.449 23.3359 355.662C23.2046 355.605 23.0561 355.602 22.9229 355.654C22.7896 355.706 22.6825 355.809 22.6249 355.94C22.5678 356.071 22.565 356.22 22.6171 356.353C22.6693 356.486 22.7721 356.593 22.9031 356.651C31.4971 360.361 49.1797 374.643 54.9605 402.156C54.9884 402.275 55.0554 402.38 55.1508 402.456C55.2462 402.532 55.3643 402.573 55.4861 402.573Z" fill="white"/>
<path d="M7.50805 393.624C8.07996 395.973 10.2439 397.534 12.2842 398.833C14.3245 400.131 16.5348 401.522 17.3541 403.794C18.9925 408.431 13.9845 413.486 15.8084 417.999C16.2631 418.916 16.8988 419.731 17.6772 420.395C18.4556 421.059 19.3605 421.559 20.3372 421.863C21.9458 422.401 23.5813 422.855 25.2371 423.224C26.0346 423.358 26.8401 423.441 27.6483 423.471C30.047 423.385 32.4082 424.085 34.3721 425.465C37.3398 427.923 37.5871 432.266 39.0091 435.852C39.9014 437.972 41.242 439.874 42.939 441.427C44.6359 442.98 46.6489 444.147 48.8396 444.848C50.2926 445.311 52.9975 446.084 54.6514 445.528L55.0069 445.389C55.2542 445.203 55.5634 444.941 55.7179 444.801V444.724C56.6917 442.668 56.1507 440.257 56.5217 438.031C56.513 437.897 56.513 437.763 56.5217 437.629C57.0936 435.064 57.6346 432.513 58.1756 429.901C59.1648 425.187 60.0768 420.441 60.9269 415.696C61.4524 412.605 62.4725 409.297 61.6688 406.159C60.8187 402.697 57.2327 401.971 56.4598 398.585C56.1352 397.241 56.0889 395.85 55.7952 394.489C55.319 392.491 54.3032 390.661 52.8587 389.2C51.4141 387.74 49.5962 386.703 47.6031 386.205C41.4204 384.736 34.8358 388.786 28.6685 387.178C27.1228 386.746 25.5771 385.973 24.0314 385.385C19.1316 383.5 12.9952 383.84 9.36285 387.642C8.58706 388.411 8.01216 389.358 7.68872 390.401C7.36528 391.444 7.30323 392.551 7.50805 393.624Z" fill="#F42355"/>
<g opacity="0.07">
<path opacity="0.07" d="M7.50805 393.624C8.07996 395.973 10.2439 397.534 12.2842 398.833C14.3245 400.131 16.5348 401.522 17.3541 403.794C18.9925 408.431 13.9845 413.486 15.8084 417.999C16.2631 418.916 16.8988 419.731 17.6772 420.395C18.4556 421.059 19.3605 421.559 20.3372 421.863C21.9213 422.478 23.5627 422.934 25.2371 423.224C26.0346 423.358 26.8401 423.441 27.6483 423.471C30.047 423.385 32.4082 424.085 34.3721 425.465C37.3398 427.923 37.5871 432.266 39.0091 435.852C39.9014 437.972 41.242 439.874 42.939 441.427C44.6359 442.98 46.6489 444.147 48.8396 444.848C50.2926 445.311 52.9975 446.084 54.6514 445.528L55.0069 445.389C55.1047 445.347 55.198 445.295 55.2852 445.234C55.4517 445.114 55.5978 444.968 55.7179 444.801V444.724C56.8772 443.101 56.2589 439.979 56.5217 438.031C56.513 437.897 56.513 437.763 56.5217 437.629C57.0936 435.064 57.6346 432.513 58.1756 429.901C59.1648 425.187 60.0768 420.441 60.9269 415.696C61.4524 412.605 62.4725 409.297 61.6688 406.159C60.8187 402.697 57.2327 401.971 56.4598 398.585C56.1352 397.241 56.0889 395.85 55.7952 394.489C55.319 392.491 54.3032 390.661 52.8587 389.2C51.4141 387.74 49.5962 386.703 47.6031 386.205C41.4204 384.736 34.8358 388.786 28.6685 387.178C27.1228 386.746 25.5771 385.973 24.0314 385.385C19.1316 383.5 12.9952 383.84 9.36285 387.642C8.58706 388.411 8.01216 389.358 7.68872 390.401C7.36528 391.444 7.30323 392.551 7.50805 393.624Z" fill="#263238"/>
</g>
<path d="M58.1446 434.909C58.2867 434.893 58.4174 434.824 58.5095 434.714C58.6016 434.605 58.6481 434.464 58.6393 434.322C55.9343 400.239 22.563 389.28 14.4482 388.384C14.3053 388.371 14.1628 388.413 14.0505 388.502C13.9381 388.592 13.8646 388.721 13.8453 388.863C13.8367 388.934 13.8423 389.006 13.8618 389.075C13.8813 389.144 13.9143 389.209 13.9589 389.265C14.0035 389.321 14.0588 389.367 14.1215 389.402C14.1843 389.437 14.2533 389.458 14.3245 389.466C22.2693 390.332 54.9142 401.074 57.6037 434.414C57.6153 434.55 57.6774 434.676 57.7776 434.767C57.8778 434.859 58.0088 434.91 58.1446 434.909Z" fill="white"/>
<path d="M23.1194 411.476C23.2294 411.477 23.337 411.445 23.4286 411.384C27.0919 409.223 31.1866 407.896 35.4211 407.498C39.6556 407.1 43.9258 407.64 47.9277 409.081C47.9957 409.109 48.0687 409.123 48.1423 409.121C48.2158 409.12 48.2884 409.104 48.3555 409.074C48.4226 409.044 48.4828 409 48.5325 408.946C48.5822 408.892 48.6203 408.828 48.6445 408.758C48.6687 408.689 48.6785 408.615 48.6733 408.542C48.6681 408.469 48.6479 408.397 48.6141 408.332C48.5803 408.266 48.5335 408.209 48.4766 408.162C48.4197 408.115 48.3539 408.081 48.2832 408.06C44.1212 406.561 39.6789 406.001 35.2749 406.42C30.8709 406.84 26.6143 408.229 22.8103 410.487C22.7506 410.527 22.6996 410.579 22.6607 410.64C22.6219 410.7 22.5958 410.768 22.5842 410.839C22.5726 410.91 22.5758 410.983 22.5934 411.052C22.611 411.122 22.6427 411.188 22.6866 411.245C22.7324 411.318 22.7964 411.377 22.8723 411.418C22.9482 411.459 23.0333 411.479 23.1194 411.476Z" fill="white"/>
<path d="M343.169 242.255C341.887 240.682 341.265 238.672 341.434 236.65C341.604 234.627 342.551 232.749 344.078 231.411C345.604 230.073 347.59 229.38 349.617 229.476C351.644 229.573 353.555 230.453 354.947 231.93C354.947 231.142 354.823 230.384 354.823 229.519C354.826 225.355 355.918 221.266 357.992 217.656C360.067 214.046 363.05 211.043 366.646 208.945C370.242 206.847 374.324 205.727 378.487 205.698C382.65 205.668 386.749 206.729 390.374 208.775C389.814 207.466 389.525 206.057 389.524 204.633C389.522 202.792 390.009 200.983 390.935 199.391C391.86 197.799 393.192 196.482 394.794 195.573C396.396 194.665 398.21 194.198 400.051 194.22C401.893 194.242 403.695 194.752 405.274 195.699C405.096 194.481 405.003 193.252 404.996 192.02C404.968 185.95 406.987 180.048 410.729 175.269C414.47 170.489 419.714 167.111 425.613 165.681C431.513 164.25 437.722 164.852 443.236 167.388C448.751 169.924 453.25 174.246 456.004 179.655C456.724 177.964 457.921 176.52 459.45 175.499C460.978 174.479 462.771 173.927 464.609 173.91C466.447 173.894 468.249 174.414 469.796 175.407C471.342 176.4 472.566 177.822 473.315 179.5C475.741 175.594 479.374 172.584 483.663 170.926C487.952 169.268 492.664 169.053 497.087 170.312C501.509 171.571 505.401 174.237 508.174 177.906C510.946 181.574 512.448 186.046 512.452 190.645C512.443 191.706 512.356 192.765 512.189 193.813C513.338 192.874 514.73 192.28 516.203 192.1C517.677 191.921 519.171 192.163 520.511 192.799C521.852 193.436 522.985 194.44 523.777 195.695C524.569 196.95 524.989 198.404 524.988 199.888C524.988 199.888 524.988 199.888 524.988 199.981C527.839 198.314 531.083 197.439 534.385 197.446C538.929 197.451 543.318 199.098 546.743 202.083C550.169 205.068 552.4 209.19 553.026 213.691C555.138 212.894 557.435 212.724 559.64 213.201C561.846 213.678 563.867 214.782 565.461 216.38C567.054 217.979 568.152 220.003 568.622 222.21C569.093 224.418 568.916 226.714 568.112 228.823C574.038 231.183 578.956 235.535 582.021 241.128C585.086 246.722 586.106 253.209 584.906 259.474C583.705 265.738 580.36 271.389 575.445 275.454C570.529 279.519 564.351 281.744 557.973 281.747L459.435 348.134L354.035 280.279C349.572 280.269 345.234 278.807 341.676 276.113C338.117 273.42 335.532 269.642 334.31 265.35C333.088 261.058 333.296 256.484 334.903 252.321C336.509 248.157 339.427 244.629 343.215 242.27L343.169 242.255ZM356.987 239.38C356.965 239.327 356.939 239.275 356.91 239.225C356.903 239.272 356.903 239.319 356.91 239.365L356.987 239.38Z" fill="#F5F5F5"/>
<path d="M534.37 197.43C538.914 197.435 543.302 199.082 546.728 202.067C550.153 205.052 552.385 209.175 553.011 213.675C555.122 212.878 557.419 212.708 559.625 213.185C561.831 213.663 563.852 214.767 565.445 216.365C567.039 217.963 568.137 219.988 568.607 222.195C569.077 224.402 568.9 226.699 568.097 228.808C574.022 231.168 578.941 235.519 582.005 241.113C585.07 246.707 586.09 253.194 584.89 259.458C583.69 265.723 580.344 271.374 575.429 275.439C570.514 279.503 564.336 281.729 557.957 281.732L459.42 348.119L361.238 284.916L358.718 275.472C372.089 292.83 389.957 279.011 389.957 279.011C389.957 279.011 391.317 287.868 398.798 288.409C400.871 288.609 402.957 288.177 404.78 287.17C406.604 286.163 408.08 284.629 409.015 282.767C409.987 286.724 412.116 290.3 415.131 293.04C418.146 295.779 421.909 297.557 425.94 298.147C440.531 300.852 449.048 284.839 449.048 284.839C449.048 284.839 451.784 292.057 459.42 290.125C467.055 288.193 464.35 283.942 464.35 283.942C464.35 283.942 468.694 287.76 476.16 283.772C483.625 279.784 484.135 268.099 484.135 268.099C488.079 269.658 492.388 270.05 496.548 269.228C500.709 268.406 504.545 266.404 507.599 263.462C518.419 253.183 509.253 239.055 509.253 239.055C525.513 242.24 524.91 228.9 524.91 228.9C547.632 225.793 545.994 203.505 534.37 197.43Z" fill="#F0F0F0"/>
<path d="M434.055 318.967L437.502 523.956L416.063 511.575L409.015 304.515L434.055 318.967Z" fill="#FAFAFA"/>
<path d="M409.015 304.515L416.063 511.575L394.702 499.256L383.913 290.017L409.015 304.515Z" fill="#F42355"/>
<path d="M452.341 329.524C454.403 330.602 456.707 331.134 459.033 331.07V534.126C456.707 534.19 454.403 533.658 452.341 532.581L437.502 524.018L434.055 319.029L452.341 329.524Z" fill="#F42355"/>
<path d="M373.449 486.983L358.981 478.621C357.004 477.326 355.324 475.625 354.053 473.632C352.782 471.639 351.949 469.399 351.608 467.059L333.462 260.896L358.718 275.472L373.449 486.983Z" fill="#F42355"/>
<path d="M383.913 290.017L394.702 499.256L373.449 486.983L358.718 275.472L383.913 290.017Z" fill="#FAFAFA"/>
<path d="M465.788 329.524C463.724 330.598 461.421 331.13 459.095 331.07V534.126C461.421 534.186 463.724 533.654 465.788 532.581L480.611 524.018L484.058 319.029L465.788 329.524Z" fill="#E6E6E6"/>
<path d="M464.351 283.988C465.573 285.674 467.182 287.043 469.043 287.979C470.903 288.915 472.961 289.391 475.043 289.368C477.126 289.345 479.172 288.823 481.012 287.846C482.851 286.869 484.429 285.465 485.614 283.753C486.799 282.04 487.556 280.068 487.822 278.003C488.088 275.937 487.855 273.838 487.143 271.881C486.43 269.924 485.259 268.166 483.727 266.755C482.195 265.344 480.348 264.321 478.339 263.771C479.745 265.719 480.586 268.017 480.769 270.412C480.952 272.807 480.471 275.206 479.377 277.345C478.284 279.484 476.621 281.279 474.572 282.533C472.524 283.787 470.169 284.451 467.766 284.452C466.612 284.455 465.462 284.299 464.351 283.988Z" fill="#E0E0E0"/>
<path d="M449.048 284.839C448.9 286.188 449.077 287.553 449.565 288.82C450.053 290.086 450.838 291.217 451.854 292.118C452.87 293.018 454.087 293.662 455.403 293.995C456.719 294.327 458.096 294.339 459.418 294.03C460.739 293.721 461.967 293.099 462.999 292.216C464.031 291.334 464.835 290.217 465.346 288.959C465.856 287.701 466.058 286.339 465.933 284.988C465.808 283.636 465.361 282.334 464.629 281.191C464.444 282.969 463.696 284.642 462.496 285.967C460.979 287.629 458.867 288.624 456.62 288.734C454.372 288.844 452.173 288.061 450.501 286.554C449.946 286.046 449.458 285.47 449.048 284.839Z" fill="#E0E0E0"/>
<path d="M386.247 254.497C386.118 256.58 386.49 258.665 387.333 260.574C388.176 262.484 389.465 264.164 391.091 265.472C392.718 266.781 394.635 267.679 396.681 268.093C398.727 268.507 400.843 268.424 402.85 267.851C404.858 267.277 406.698 266.231 408.217 264.798C409.736 263.366 410.889 261.591 411.579 259.621C412.27 257.65 412.477 255.543 412.184 253.476C411.891 251.409 411.107 249.443 409.896 247.742C409.751 250.14 408.945 252.451 407.568 254.42C406.192 256.389 404.297 257.939 402.095 258.899C399.892 259.859 397.467 260.191 395.088 259.858C392.709 259.526 390.467 258.543 388.612 257.016C387.722 256.278 386.928 255.432 386.247 254.497Z" fill="#E0E0E0"/>
<path d="M372.135 248.345C371.986 249.694 372.164 251.06 372.652 252.326C373.14 253.593 373.925 254.724 374.941 255.624C375.957 256.525 377.174 257.168 378.49 257.501C379.806 257.834 381.183 257.846 382.504 257.536C383.826 257.227 385.054 256.605 386.086 255.723C387.117 254.84 387.922 253.723 388.433 252.465C388.943 251.208 389.144 249.846 389.02 248.494C388.895 247.142 388.448 245.84 387.716 244.697C387.541 246.504 386.787 248.207 385.567 249.551C384.051 251.213 381.938 252.208 379.691 252.318C377.443 252.428 375.244 251.644 373.572 250.138C373.017 249.606 372.534 249.003 372.135 248.345Z" fill="#E0E0E0"/>
<path d="M408.907 234.001C407.694 234.607 406.644 235.495 405.845 236.591C405.046 237.686 404.521 238.957 404.314 240.297C404.108 241.638 404.225 243.008 404.657 244.293C405.088 245.578 405.822 246.742 406.796 247.685C407.769 248.629 408.955 249.325 410.253 249.717C411.552 250.108 412.925 250.182 414.258 249.933C415.591 249.685 416.844 249.12 417.914 248.287C418.984 247.454 419.839 246.377 420.407 245.145C419.006 245.842 417.441 246.138 415.883 246.001C414.325 245.863 412.835 245.298 411.578 244.367C410.321 243.437 409.345 242.177 408.76 240.726C408.174 239.276 408 237.692 408.258 236.15C408.375 235.407 408.594 234.684 408.907 234.001Z" fill="#E0E0E0"/>
<path d="M134.192 73.3427C154.101 62.2447 181.413 64.0686 211.477 81.4576C272.577 116.622 321.947 202.237 321.947 272.628C321.947 311.687 306.737 337.84 282.794 347.408C263.566 355.136 238.696 352.045 211.554 336.372C150.592 301.161 101.161 215.546 101.161 145.155C101.161 109.558 113.805 84.6571 134.192 73.3427ZM133.11 116.035C139.293 122.805 145.847 130.193 152.385 137.968C165.563 153.546 177.944 169.781 189.481 186.61C191.027 188.929 192.573 191.17 193.902 193.272C195.385 192.171 197.228 191.669 199.065 191.866C198.601 190.227 198.137 188.512 197.658 186.719L200.054 190.351C201.538 189.252 203.38 188.75 205.217 188.944C204.567 186.719 203.918 184.307 203.269 181.772C198.497 163.462 194.837 144.88 192.31 126.128C191.012 117.07 190.038 108.136 189.311 99.8512C174.411 95.8324 161.118 97.239 150.577 103.375C143.749 105.975 137.725 110.324 133.11 115.988V116.035ZM283.876 196.626C272.423 169.623 254.586 144.073 233.703 125.525C233.472 128.122 233.224 130.749 232.915 133.393C231.153 131.692 229.376 130.038 227.552 128.431C226.918 135.881 226.006 143.718 224.661 151.245C222.396 165.879 218.721 180.258 213.687 194.184C213.053 195.962 212.327 197.6 211.755 199.115C213.781 201.344 215.516 203.822 216.917 206.488C218.293 205.978 219.731 205.421 221.276 204.942C233.352 201.339 245.865 199.409 258.465 199.208C264.891 198.944 271.327 199.052 277.74 199.532C277.276 198.435 276.797 197.322 276.318 196.24C278.868 196.271 281.388 196.41 283.876 196.58V196.626ZM272.346 313.233C274.142 311.701 275.812 310.026 277.338 308.225L278.466 310.327C290.492 300.11 297.757 282.505 297.757 258.67C297.757 256.908 297.664 255.084 297.664 253.307C290.971 251.035 283.753 248.422 276.442 245.439C261.268 239.197 246.602 231.786 232.575 223.274C230.55 222.007 228.618 220.801 226.841 219.595C226.796 221.635 226.18 223.622 225.063 225.33C223.517 224.372 222.08 223.444 220.704 222.517C220.669 224.649 219.996 226.721 218.772 228.468C220.318 230.384 221.864 232.517 223.533 234.758C233.781 248.778 246.208 267.589 257.414 286.74C262.731 295.628 267.739 304.577 272.346 313.187V313.233ZM205.387 311.378C216.206 317.654 226.763 321.394 236.3 322.553C235.728 321.1 235.156 319.632 234.6 318.164C237.176 318.831 239.794 319.321 242.437 319.632C238.959 310.837 235.574 301.517 232.343 292.026C225.953 273.423 220.541 254.499 216.129 235.33C215.573 232.873 215.155 230.492 214.676 228.267C213.549 227.863 212.467 227.345 211.446 226.721C210.352 226.082 209.318 225.347 208.354 224.526C207.947 226.353 207.431 228.155 206.809 229.921C206.809 230.075 206.716 230.214 206.685 230.369C206.252 230.168 205.819 229.921 205.371 229.673C204.275 229.039 203.24 228.304 202.28 227.478H202.202C201.826 229.309 201.341 231.115 200.75 232.888C196.738 246.073 191.279 258.774 184.473 270.757C181.425 276.275 178.06 281.611 174.396 286.74C183.53 296.354 193.961 304.647 205.387 311.378ZM144.162 232.069C144.301 232.394 144.471 232.718 144.641 233.043C149.369 229.614 154.326 226.516 159.48 223.769C160.608 223.135 161.783 222.532 162.942 221.945C170.769 218.44 178.93 215.736 187.302 213.876C188.925 213.505 190.533 213.227 191.939 213.042C191.707 212.501 191.522 211.975 191.336 211.496L193.408 211.017C194.937 210.659 196.485 210.386 198.045 210.198C196.955 207.586 196.303 204.813 196.112 201.99C194.335 201.155 192.387 200.12 190.455 199.1C175.167 190.599 160.48 181.06 146.496 170.551C139.231 165.156 132.059 159.422 125.367 153.966C125.367 155.743 125.274 157.474 125.274 159.236C125.274 160.087 125.274 160.937 125.274 161.802L119.199 156.887C119.199 158.664 119.199 160.38 119.199 162.142C119.199 185.899 126.464 211.991 138.474 236.057C140.298 234.588 142.199 233.29 144.162 232.023V232.069Z" fill="#F42355"/>
<path opacity="0.4" d="M134.192 73.3427C154.101 62.2447 181.413 64.0686 211.477 81.4576C272.577 116.622 321.947 202.237 321.947 272.628C321.947 311.687 306.737 337.84 282.794 347.408C263.566 355.136 238.696 352.045 211.554 336.372C150.592 301.161 101.161 215.546 101.161 145.155C101.161 109.558 113.805 84.6571 134.192 73.3427ZM133.11 116.035C139.293 122.805 145.847 130.193 152.385 137.968C165.563 153.546 177.944 169.781 189.481 186.61C191.027 188.929 192.573 191.17 193.902 193.272C195.385 192.171 197.228 191.669 199.065 191.866C198.601 190.227 198.137 188.512 197.658 186.719L200.054 190.351C201.538 189.252 203.38 188.75 205.217 188.944C204.567 186.719 203.918 184.307 203.269 181.772C198.497 163.462 194.837 144.88 192.31 126.128C191.012 117.07 190.038 108.136 189.311 99.8512C174.411 95.8324 161.118 97.239 150.577 103.375C143.749 105.975 137.725 110.324 133.11 115.988V116.035ZM283.876 196.626C272.423 169.623 254.586 144.073 233.703 125.525C233.472 128.122 233.224 130.749 232.915 133.393C231.153 131.692 229.376 130.038 227.552 128.431C226.918 135.881 226.006 143.718 224.661 151.245C222.396 165.879 218.721 180.258 213.687 194.184C213.053 195.962 212.327 197.6 211.755 199.115C213.781 201.344 215.516 203.822 216.917 206.488C218.293 205.978 219.731 205.421 221.276 204.942C233.352 201.339 245.865 199.409 258.465 199.208C264.891 198.944 271.327 199.052 277.74 199.532C277.276 198.435 276.797 197.322 276.318 196.24C278.868 196.271 281.388 196.41 283.876 196.58V196.626ZM272.346 313.233C274.142 311.701 275.812 310.026 277.338 308.225L278.466 310.327C290.492 300.11 297.757 282.505 297.757 258.67C297.757 256.908 297.664 255.084 297.664 253.307C290.971 251.035 283.753 248.422 276.442 245.439C261.268 239.197 246.602 231.786 232.575 223.274C230.55 222.007 228.618 220.801 226.841 219.595C226.796 221.635 226.18 223.622 225.063 225.33C223.517 224.372 222.08 223.444 220.704 222.517C220.669 224.649 219.996 226.721 218.772 228.468C220.318 230.384 221.864 232.517 223.533 234.758C233.781 248.778 246.208 267.589 257.414 286.74C262.731 295.628 267.739 304.577 272.346 313.187V313.233ZM205.387 311.378C216.206 317.654 226.763 321.394 236.3 322.553C235.728 321.1 235.156 319.632 234.6 318.164C237.176 318.831 239.794 319.321 242.437 319.632C238.959 310.837 235.574 301.517 232.343 292.026C225.953 273.423 220.541 254.499 216.129 235.33C215.573 232.873 215.155 230.492 214.676 228.267C213.549 227.863 212.467 227.345 211.446 226.721C210.352 226.082 209.318 225.347 208.354 224.526C207.947 226.353 207.431 228.155 206.809 229.921C206.809 230.075 206.716 230.214 206.685 230.369C206.252 230.168 205.819 229.921 205.371 229.673C204.275 229.039 203.24 228.304 202.28 227.478H202.202C201.826 229.309 201.341 231.115 200.75 232.888C196.738 246.073 191.279 258.774 184.473 270.757C181.425 276.275 178.06 281.611 174.396 286.74C183.53 296.354 193.961 304.647 205.387 311.378ZM144.162 232.069C144.301 232.394 144.471 232.718 144.641 233.043C149.369 229.614 154.326 226.516 159.48 223.769C160.608 223.135 161.783 222.532 162.942 221.945C170.769 218.44 178.93 215.736 187.302 213.876C188.925 213.505 190.533 213.227 191.939 213.042C191.707 212.501 191.522 211.975 191.336 211.496L193.408 211.017C194.937 210.659 196.485 210.386 198.045 210.198C196.955 207.586 196.303 204.813 196.112 201.99C194.335 201.155 192.387 200.12 190.455 199.1C175.167 190.599 160.48 181.06 146.496 170.551C139.231 165.156 132.059 159.422 125.367 153.966C125.367 155.743 125.274 157.474 125.274 159.236C125.274 160.087 125.274 160.937 125.274 161.802L119.199 156.887C119.199 158.664 119.199 160.38 119.199 162.142C119.199 185.899 126.464 211.991 138.474 236.057C140.298 234.588 142.199 233.29 144.162 232.023V232.069Z" fill="white"/>
<path d="M134.192 73.3427C153.405 65.6143 178.275 68.7056 205.417 84.3789C266.395 119.543 315.857 205.143 315.857 275.549C315.857 311.1 303.197 336.032 282.825 347.408C262.901 358.506 235.589 356.682 205.448 339.278C144.487 304.082 95.0556 218.482 95.0556 148.077C95.0247 109.017 110.281 82.8486 134.192 73.3427ZM191.383 211.403C190.65 209.277 190.203 207.063 190.053 204.819C188.291 203.968 186.344 202.948 184.412 201.913C169.119 193.416 154.427 183.883 140.437 173.379C135.336 169.577 130.282 165.651 125.382 161.709L119.307 156.794C119.307 158.572 119.307 160.287 119.307 162.049C119.307 185.807 126.572 211.898 138.582 235.964C140.375 234.635 142.276 233.336 144.239 232.069C147.176 230.183 150.268 228.375 153.421 226.644C156.574 224.912 159.773 223.336 163.019 221.914C170.846 218.409 179.008 215.706 187.379 213.845C189.002 213.474 190.61 213.196 192.016 213.011C191.754 212.454 191.568 211.898 191.383 211.357V211.403ZM133.11 116.034C139.293 122.805 145.847 130.193 152.385 137.968C165.563 153.546 177.944 169.781 189.481 186.61C191.027 188.929 192.573 191.17 193.902 193.272C195.385 192.171 197.228 191.668 199.065 191.866C198.601 190.227 198.137 188.512 197.658 186.719C197.488 186.054 197.318 185.374 197.133 184.694C192.363 166.383 188.703 147.801 186.174 129.049C184.875 120.022 183.917 111.073 183.191 102.773C171.042 99.4957 160.005 99.8357 150.577 103.391C143.751 105.986 137.727 110.33 133.11 115.988V116.034ZM205.387 229.689C204.29 229.054 203.255 228.32 202.295 227.494H202.218C201.842 229.324 201.357 231.131 200.765 232.904C196.747 246.084 191.284 258.779 184.473 270.757C181.425 276.275 178.06 281.611 174.396 286.74C183.509 296.332 193.913 304.609 205.309 311.332C216.129 317.607 226.686 321.348 236.223 322.507C235.651 321.054 235.079 319.586 234.523 318.117C231.632 310.621 228.835 302.815 226.13 294.932C219.733 276.337 214.32 257.417 209.915 238.252C209.359 235.779 208.957 233.414 208.478 231.172C207.817 230.967 207.176 230.703 206.561 230.384C206.268 230.137 205.835 229.89 205.387 229.642V229.689ZM291.62 261.592C291.62 259.814 291.528 257.99 291.528 256.228C284.835 253.94 277.616 251.328 270.321 248.36C255.145 242.112 240.474 234.701 226.439 226.195L225.063 225.33C223.517 224.371 222.08 223.444 220.704 222.517C220.669 224.649 219.996 226.721 218.772 228.468C220.318 230.384 221.864 232.517 223.533 234.758C233.781 248.778 246.208 267.589 257.414 286.74C262.731 295.674 267.739 304.623 272.346 313.233C274.143 311.701 275.812 310.026 277.338 308.225C286.349 297.621 291.62 281.778 291.62 261.545V261.592ZM227.552 128.477C226.918 135.927 226.006 143.764 224.661 151.292C222.396 165.925 218.721 180.305 213.687 194.231C213.053 196.008 212.327 197.647 211.755 199.161C213.781 201.39 215.516 203.868 216.917 206.534C218.293 206.024 219.731 205.468 221.276 204.989C233.352 201.385 245.865 199.456 258.465 199.254C264.891 198.99 271.327 199.098 277.74 199.579C277.276 198.481 276.797 197.368 276.318 196.286C265.919 172.81 251.195 151.5 232.915 133.47C231.153 131.692 229.298 130.038 227.552 128.431V128.477Z" fill="#F42355"/>
<path opacity="0.15" d="M134.192 73.3427C153.405 65.6143 178.275 68.7056 205.417 84.3789C266.395 119.543 315.857 205.143 315.857 275.549C315.857 311.1 303.197 336.032 282.825 347.408C262.901 358.506 235.589 356.682 205.448 339.278C144.487 304.082 95.0556 218.482 95.0556 148.077C95.0247 109.017 110.281 82.8486 134.192 73.3427ZM191.383 211.403C190.65 209.277 190.203 207.063 190.053 204.819C188.291 203.968 186.344 202.948 184.412 201.913C169.119 193.416 154.427 183.883 140.437 173.379C135.336 169.577 130.282 165.651 125.382 161.709L119.307 156.794C119.307 158.572 119.307 160.287 119.307 162.049C119.307 185.807 126.572 211.898 138.582 235.964C140.375 234.635 142.276 233.336 144.239 232.069C147.176 230.183 150.268 228.375 153.421 226.644C156.574 224.912 159.773 223.336 163.019 221.914C170.846 218.409 179.008 215.706 187.379 213.845C189.002 213.474 190.61 213.196 192.016 213.011C191.754 212.454 191.568 211.898 191.383 211.357V211.403ZM133.11 116.034C139.293 122.805 145.847 130.193 152.385 137.968C165.563 153.546 177.944 169.781 189.481 186.61C191.027 188.929 192.573 191.17 193.902 193.272C195.385 192.171 197.228 191.668 199.065 191.866C198.601 190.227 198.137 188.512 197.658 186.719C197.488 186.054 197.318 185.374 197.133 184.694C192.363 166.383 188.703 147.801 186.174 129.049C184.875 120.022 183.917 111.073 183.191 102.773C171.042 99.4957 160.005 99.8357 150.577 103.391C143.751 105.986 137.727 110.33 133.11 115.988V116.034ZM205.387 229.689C204.29 229.054 203.255 228.32 202.295 227.494H202.218C201.842 229.324 201.357 231.131 200.765 232.904C196.747 246.084 191.284 258.779 184.473 270.757C181.425 276.275 178.06 281.611 174.396 286.74C183.509 296.332 193.913 304.609 205.309 311.332C216.129 317.607 226.686 321.348 236.223 322.507C235.651 321.054 235.079 319.586 234.523 318.117C231.632 310.621 228.835 302.815 226.13 294.932C219.733 276.337 214.32 257.417 209.915 238.252C209.359 235.779 208.957 233.414 208.478 231.172C207.817 230.967 207.176 230.703 206.561 230.384C206.268 230.137 205.835 229.89 205.387 229.642V229.689ZM291.62 261.592C291.62 259.814 291.528 257.99 291.528 256.228C284.835 253.94 277.616 251.328 270.321 248.36C255.145 242.112 240.474 234.701 226.439 226.195L225.063 225.33C223.517 224.371 222.08 223.444 220.704 222.517C220.669 224.649 219.996 226.721 218.772 228.468C220.318 230.384 221.864 232.517 223.533 234.758C233.781 248.778 246.208 267.589 257.414 286.74C262.731 295.674 267.739 304.623 272.346 313.233C274.143 311.701 275.812 310.026 277.338 308.225C286.349 297.621 291.62 281.778 291.62 261.545V261.592ZM227.552 128.477C226.918 135.927 226.006 143.764 224.661 151.292C222.396 165.925 218.721 180.305 213.687 194.231C213.053 196.008 212.327 197.647 211.755 199.161C213.781 201.39 215.516 203.868 216.917 206.534C218.293 206.024 219.731 205.468 221.276 204.989C233.352 201.385 245.865 199.456 258.465 199.254C264.891 198.99 271.327 199.098 277.74 199.579C277.276 198.481 276.797 197.368 276.318 196.286C265.919 172.81 251.195 151.5 232.915 133.47C231.153 131.692 229.298 130.038 227.552 128.431V128.477Z" fill="black"/>
<path d="M218.772 228.421C220.318 230.338 221.864 232.471 223.533 234.712C233.781 248.731 246.208 267.542 257.414 286.693C262.731 295.628 267.739 304.577 272.346 313.186C274.142 311.655 275.812 309.98 277.338 308.178C273.057 300.203 268.435 291.995 263.535 283.772C252.329 264.637 239.902 245.826 229.654 231.791C228.108 229.565 226.439 227.416 224.909 225.515L225.063 225.283C223.517 224.325 222.08 223.398 220.704 222.47C220.669 224.602 219.996 226.675 218.772 228.421Z" fill="#F42355"/>
<path opacity="0.4" d="M218.772 228.421C220.318 230.338 221.864 232.471 223.533 234.712C233.781 248.731 246.208 267.542 257.414 286.693C262.731 295.628 267.739 304.577 272.346 313.186C274.142 311.655 275.812 309.98 277.338 308.178C273.057 300.203 268.435 291.995 263.535 283.772C252.329 264.637 239.902 245.826 229.654 231.791C228.108 229.565 226.439 227.416 224.909 225.515L225.063 225.283C223.517 224.325 222.08 223.398 220.704 222.47C220.669 224.602 219.996 226.675 218.772 228.421Z" fill="black"/>
<path d="M174.411 286.74C183.525 296.332 193.929 304.609 205.325 311.332C216.145 317.607 226.702 321.348 236.238 322.507C235.667 321.054 235.095 319.586 234.538 318.117C226.398 315.97 218.595 312.703 211.353 308.41C199.959 301.684 189.555 293.408 180.439 283.818C184.141 278.691 187.552 273.361 190.656 267.852C197.37 255.972 202.761 243.393 206.731 230.338C206.299 230.137 205.866 229.89 205.418 229.642C204.321 229.008 203.286 228.273 202.326 227.447H202.249C201.873 229.278 201.387 231.084 200.796 232.857C196.772 246.055 191.297 258.766 184.474 270.757C181.43 276.275 178.071 281.611 174.411 286.74Z" fill="#F42355"/>
<path opacity="0.3" d="M174.411 286.74C183.525 296.332 193.929 304.609 205.325 311.332C216.145 317.607 226.702 321.348 236.238 322.507C235.667 321.054 235.095 319.586 234.538 318.117C226.398 315.97 218.595 312.703 211.353 308.41C199.959 301.684 189.555 293.408 180.439 283.818" fill="black"/>
<path opacity="0.4" d="M184.473 270.757C191.263 258.746 196.701 246.02 200.688 232.811C201.279 231.038 201.764 229.232 202.141 227.401H202.218C203.178 228.227 204.213 228.962 205.309 229.596C205.758 229.843 206.19 230.09 206.623 230.291C202.69 243.358 197.336 255.953 190.656 267.852C187.597 273.357 184.232 278.688 180.578 283.818L174.396 286.74C178.06 281.611 181.425 276.275 184.473 270.757Z" fill="black"/>
<path d="M162.942 221.867C170.769 218.362 178.93 215.659 187.302 213.799C188.925 213.428 190.533 213.15 191.939 212.964C191.707 212.423 191.522 211.898 191.336 211.419C181.499 213.791 171.971 217.298 162.942 221.867Z" fill="#F42355"/>
<path d="M119.23 162.003C119.23 185.76 126.495 211.851 138.505 235.918C140.298 234.588 142.199 233.29 144.162 232.023C132.848 209.1 125.877 184.385 125.382 161.663L119.307 156.748C119.307 158.525 119.23 160.241 119.23 162.003Z" fill="#F42355"/>
<path opacity="0.4" d="M162.942 221.867C170.769 218.362 178.93 215.659 187.302 213.799C188.925 213.428 190.533 213.15 191.939 212.964C191.707 212.423 191.522 211.898 191.336 211.419C181.499 213.791 171.971 217.298 162.942 221.867Z" fill="black"/>
<path opacity="0.3" d="M119.23 162.003C119.23 185.76 126.495 211.851 138.505 235.918C140.298 234.588 142.199 233.29 144.162 232.023C132.848 209.1 125.877 184.385 125.382 161.663L119.307 156.748C119.307 158.525 119.23 160.241 119.23 162.003Z" fill="black"/>
<path d="M133.11 115.988C139.293 122.758 145.847 130.147 152.385 137.921C165.563 153.499 177.944 169.734 189.481 186.564C191.027 188.883 192.573 191.124 193.902 193.226C195.385 192.124 197.228 191.622 199.065 191.819C198.601 190.181 198.137 188.465 197.658 186.672L195.618 183.581C184.076 166.76 171.694 150.53 158.521 134.954C151.983 127.225 145.46 119.76 139.231 113.02C142.418 109.155 146.264 105.884 150.592 103.36C143.757 105.961 137.728 110.317 133.11 115.988Z" fill="#F42355"/>
<path opacity="0.4" d="M133.11 115.988C139.293 122.758 145.847 130.147 152.385 137.921C165.563 153.499 177.944 169.734 189.481 186.564C191.027 188.883 192.573 191.124 193.902 193.226C195.385 192.124 197.228 191.622 199.065 191.819C198.601 190.181 198.137 188.465 197.658 186.672L195.618 183.581C184.076 166.76 171.694 150.53 158.521 134.954C151.983 127.225 145.46 119.76 139.231 113.02C142.418 109.155 146.264 105.884 150.592 103.36C143.757 105.961 137.728 110.317 133.11 115.988Z" fill="black"/>
<path d="M211.755 199.115C213.781 201.344 215.516 203.822 216.917 206.488C218.293 205.978 219.731 205.421 221.276 204.942C233.352 201.339 245.865 199.409 258.465 199.208C264.891 198.944 271.327 199.052 277.74 199.532C277.276 198.435 276.797 197.322 276.318 196.24C272.423 196.101 268.497 196.116 264.602 196.24C252.002 196.45 239.49 198.38 227.413 201.975C225.867 202.485 224.414 203.041 223.038 203.52C221.642 200.851 219.906 198.373 217.876 196.147C218.448 194.602 219.174 193.056 219.823 191.217C224.853 177.284 228.528 162.9 230.798 148.262C231.632 143.362 232.343 138.323 232.915 133.331C231.153 131.63 229.376 129.977 227.552 128.369C226.918 135.819 226.006 143.656 224.661 151.183C222.396 165.817 218.721 180.197 213.687 194.122C213.053 195.962 212.296 197.6 211.755 199.115Z" fill="#F42355"/>
<path opacity="0.4" d="M217.876 196.209C219.906 198.435 221.642 200.913 223.038 203.582C224.414 203.056 225.867 202.5 227.413 202.036C239.49 198.441 252.002 196.512 264.602 196.302C268.497 196.132 272.423 196.116 276.318 196.302C276.797 197.384 277.276 198.497 277.74 199.594C271.327 199.114 264.891 199.005 258.465 199.27C245.865 199.471 233.352 201.4 221.276 205.004C219.731 205.514 218.293 206.071 216.917 206.55C215.516 203.883 213.781 201.406 211.755 199.177L217.876 196.209Z" fill="black"/>
<path opacity="0.3" d="M217.876 196.209C218.448 194.663 219.174 193.118 219.823 191.278C224.853 177.346 228.528 162.961 230.798 148.324C231.632 143.424 232.343 138.385 232.915 133.393C231.153 131.692 229.376 130.038 227.552 128.431C226.918 135.881 226.006 143.718 224.661 151.245C222.396 165.879 218.721 180.258 213.687 194.184C213.053 195.962 212.327 197.6 211.755 199.115" fill="black"/>
<path d="M152.385 115.416L105.783 142.296C107.273 141.453 108.823 140.72 110.42 140.101C123.975 134.706 141.503 136.839 160.639 147.829C203.609 172.637 238.433 232.996 238.433 282.613C238.433 306.911 230.056 324.13 216.485 332.477L262.53 305.845C276.534 297.683 285.221 280.31 285.221 255.579C285.221 205.962 250.381 145.619 207.411 120.811C188.276 109.759 170.748 107.626 157.208 113.082C155.568 113.753 153.977 114.538 152.447 115.432L152.385 115.416Z" fill="#455A64"/>
<path d="M258.357 298.765C270.336 291.794 276.905 276.461 276.905 255.625C276.905 208.698 243.843 151.431 203.207 127.967C192.387 121.784 181.815 118.461 172.556 118.461C168.33 118.424 164.135 119.185 160.191 120.702C158.924 121.225 157.695 121.835 156.512 122.526L141.658 131.105C149.74 133.253 157.489 136.498 164.689 140.75C209.854 166.841 246.61 230.492 246.61 282.659C246.704 291.005 245.664 299.325 243.519 307.39L258.357 298.765Z" fill="#37474F"/>
<path d="M110.373 140.101C123.914 134.691 141.442 136.839 160.577 147.829C203.547 172.653 238.387 232.981 238.387 282.613C238.387 307.699 229.468 325.227 215.093 333.249C201.059 341.071 181.815 339.788 160.577 327.515C117.607 302.784 82.7675 242.379 82.7675 192.762C82.7675 165.28 93.4945 146.84 110.373 140.101Z" fill="#37474F"/>
<path d="M284.943 249.674L238.14 276.693C237.954 273.138 237.583 269.536 237.073 265.873L283.861 238.855C284.417 242.523 284.778 246.13 284.943 249.674Z" fill="#455A64"/>
<path d="M222.358 131.198L175.57 158.216C172.726 155.944 169.82 153.811 166.884 151.833L213.671 124.829C216.608 126.792 219.514 128.987 222.358 131.198Z" fill="#455A64"/>
<path d="M244.508 153.208C246.625 155.743 248.666 158.371 250.691 161.045L203.887 188.063C201.909 185.374 199.853 182.762 197.705 180.211L244.508 153.208Z" fill="#455A64"/>
<path d="M269.641 192.824C271.063 195.823 272.392 198.852 273.629 201.913L226.841 228.931C225.604 225.84 224.275 222.81 222.853 219.843L269.641 192.824Z" fill="#455A64"/>
<path d="M105.783 142.311C107.27 141.457 108.82 140.718 110.42 140.101C123.28 134.985 139.649 136.638 157.625 146.284C150.793 142.528 140.205 136.839 128.257 129.436L105.783 142.311Z" fill="#263238"/>
<path d="M160.577 147.876C138.211 135.309 48.2524 90.7626 48.2524 27.0186L95.0248 0C95.0248 63.744 184.984 108.291 207.35 120.857L199.034 125.649L191.97 121.012L160.485 139.204L168.661 143.208L160.577 147.876Z" fill="#455A64"/>
<path d="M191.97 121.012C160.531 103.592 97.3278 65.7534 88.5174 12.4891L55.9653 31.3001C59.6749 84.0852 131.348 123.268 158.769 138.261L160.484 139.204L191.97 121.012Z" fill="#37474F"/>
<path d="M133.713 71.797C136.073 73.9403 138.479 76.0373 140.932 78.0879L94.0355 105.029C91.5933 102.989 89.182 100.887 86.8326 98.7228L133.713 71.797Z" fill="#455A64"/>
<path d="M170.794 99.7121C173.777 101.613 176.714 103.422 179.543 105.137L132.631 132.079C129.808 130.368 126.892 128.56 123.883 126.653L170.794 99.7121Z" fill="#455A64"/>
<path d="M105.86 38.163C107.344 40.7803 108.951 43.3565 110.683 45.8914L63.8329 72.8017C62.1172 70.2823 60.5096 67.7319 59.0258 65.0733L105.86 38.163Z" fill="#455A64"/>
<path d="M191.97 121.012C199.297 125.03 205.68 129.436 205.68 129.436L174.767 147.288C174.767 147.288 168.29 143.486 160.484 139.204L191.97 121.012Z" fill="#37474F"/>
<path d="M91.2688 98.0737C111.177 86.9757 138.489 88.7996 168.63 106.189C229.592 141.399 279.023 227.015 279.023 297.405C279.023 336.465 263.813 362.617 239.855 372.185C220.643 379.914 195.772 376.822 168.63 361.149C107.653 325.938 58.2221 240.338 58.2221 169.933C58.2221 134.366 70.8812 109.465 91.2688 98.0737ZM90.1713 140.765C96.3541 147.536 102.923 154.924 109.461 162.699C122.635 178.281 135.016 194.515 146.558 211.341C148.104 213.66 149.649 215.901 150.979 218.003C152.461 216.902 154.305 216.399 156.141 216.597C155.677 214.958 155.198 213.243 154.735 211.45C155.569 212.702 156.358 213.907 157.115 215.082C158.6 213.985 160.441 213.483 162.278 213.675C161.628 211.45 160.979 209.038 160.33 206.503C155.566 188.191 151.906 169.61 149.371 150.859C148.073 141.801 147.114 132.867 146.388 124.582C131.487 120.563 118.195 121.97 107.638 128.106C100.811 130.737 94.7938 135.113 90.1868 140.796L90.1713 140.765ZM240.953 221.357C229.484 194.354 211.585 168.804 190.78 150.256C190.548 152.853 190.285 155.48 189.992 158.124C188.23 156.423 186.442 154.769 184.628 153.162C183.994 160.612 183.082 168.449 181.738 175.976C179.475 190.612 175.795 204.992 170.748 218.915C170.114 220.693 169.403 222.331 168.816 223.846C170.846 226.075 172.586 228.552 173.994 231.219C175.354 230.709 176.807 230.152 178.353 229.673C190.428 226.07 202.941 224.14 215.542 223.939C221.968 223.675 228.403 223.783 234.816 224.263C234.353 223.166 233.874 222.053 233.379 220.971C235.929 221.079 238.449 221.218 240.953 221.388V221.357ZM229.407 337.964C231.212 336.437 232.887 334.761 234.415 332.956L235.543 335.058C247.568 324.841 254.818 307.158 254.818 283.401C254.818 281.639 254.725 279.815 254.725 278.038C248.048 275.766 240.814 273.153 233.518 270.17C218.341 263.924 203.67 256.514 189.636 248.005C187.627 246.738 185.695 245.532 183.902 244.326C183.862 246.365 183.251 248.351 182.14 250.061C180.594 249.102 179.156 248.175 177.781 247.248C177.745 249.38 177.072 251.452 175.849 253.199C177.394 255.115 178.94 257.248 180.594 259.489C190.857 273.509 203.285 292.32 214.475 311.471C219.808 320.436 224.8 329.385 229.407 337.995V337.964ZM162.448 336.109C173.345 342.384 183.824 346.125 193.438 347.284C192.867 345.831 192.279 344.363 191.723 342.895C194.299 343.559 196.917 344.05 199.559 344.363C196.097 335.568 192.712 326.248 189.482 316.757C183.077 298.159 177.665 279.234 173.267 260.061C172.695 257.604 172.294 255.223 171.814 252.998C170.686 252.598 169.603 252.079 168.584 251.452C167.488 250.817 166.454 250.082 165.493 249.257H165.415C165.026 251.081 164.536 252.882 163.947 254.651L163.808 255.1C163.39 254.899 162.958 254.651 162.494 254.404C161.397 253.77 160.362 253.036 159.403 252.209H159.31C158.941 254.042 158.456 255.849 157.857 257.619C153.884 270.833 148.445 283.561 141.643 295.566C138.594 301.08 135.234 306.416 131.58 311.548C140.684 321.123 151.072 329.389 162.448 336.109ZM101.223 256.8C101.378 257.125 101.548 257.449 101.718 257.774C106.445 254.345 111.403 251.247 116.556 248.5C117.685 247.866 118.844 247.263 120.003 246.676C127.832 243.164 136 240.46 144.378 238.607C146.001 238.236 147.609 237.958 149.016 237.773C148.79 237.268 148.588 236.752 148.413 236.227L150.468 235.64C151.998 235.283 153.546 235.009 155.106 234.82C154.03 232.204 153.378 229.434 153.173 226.613C151.411 225.778 149.464 224.742 147.532 223.722C132.244 215.221 117.556 205.683 103.572 195.174C96.3077 189.779 89.1357 184.045 82.4429 178.588C82.4429 180.366 82.3502 182.097 82.3502 183.859C82.3502 184.709 82.3502 185.559 82.3502 186.425C80.279 184.771 78.2541 183.117 76.2602 181.51C76.2602 183.287 76.2602 185.003 76.2602 186.765C76.2602 210.522 83.5094 236.613 95.5349 260.68C97.3588 259.381 99.2548 258.098 101.223 256.831V256.8Z" fill="#F42355"/>
<path opacity="0.4" d="M91.2688 98.0737C111.177 86.9757 138.489 88.7996 168.63 106.189C229.592 141.399 279.023 227.015 279.023 297.405C279.023 336.465 263.813 362.617 239.855 372.185C220.643 379.914 195.772 376.822 168.63 361.149C107.653 325.938 58.2221 240.338 58.2221 169.933C58.2221 134.366 70.8812 109.465 91.2688 98.0737ZM90.1713 140.765C96.3541 147.536 102.923 154.924 109.461 162.699C122.635 178.281 135.016 194.515 146.558 211.341C148.104 213.66 149.649 215.901 150.979 218.003C152.461 216.902 154.305 216.399 156.141 216.597C155.677 214.958 155.198 213.243 154.735 211.45C155.569 212.702 156.358 213.907 157.115 215.082C158.6 213.985 160.441 213.483 162.278 213.675C161.628 211.45 160.979 209.038 160.33 206.503C155.566 188.191 151.906 169.61 149.371 150.859C148.073 141.801 147.114 132.867 146.388 124.582C131.487 120.563 118.195 121.97 107.638 128.106C100.811 130.737 94.7938 135.113 90.1868 140.796L90.1713 140.765ZM240.953 221.357C229.484 194.354 211.585 168.804 190.78 150.256C190.548 152.853 190.285 155.48 189.992 158.124C188.23 156.423 186.442 154.769 184.628 153.162C183.994 160.612 183.082 168.449 181.738 175.976C179.475 190.612 175.795 204.992 170.748 218.915C170.114 220.693 169.403 222.331 168.816 223.846C170.846 226.075 172.586 228.552 173.994 231.219C175.354 230.709 176.807 230.152 178.353 229.673C190.428 226.07 202.941 224.14 215.542 223.939C221.968 223.675 228.403 223.783 234.816 224.263C234.353 223.166 233.874 222.053 233.379 220.971C235.929 221.079 238.449 221.218 240.953 221.388V221.357ZM229.407 337.964C231.212 336.437 232.887 334.761 234.415 332.956L235.543 335.058C247.568 324.841 254.818 307.158 254.818 283.401C254.818 281.639 254.725 279.815 254.725 278.038C248.048 275.766 240.814 273.153 233.518 270.17C218.341 263.924 203.67 256.514 189.636 248.005C187.627 246.738 185.695 245.532 183.902 244.326C183.862 246.365 183.251 248.351 182.14 250.061C180.594 249.102 179.156 248.175 177.781 247.248C177.745 249.38 177.072 251.452 175.849 253.199C177.394 255.115 178.94 257.248 180.594 259.489C190.857 273.509 203.285 292.32 214.475 311.471C219.808 320.436 224.8 329.385 229.407 337.995V337.964ZM162.448 336.109C173.345 342.384 183.824 346.125 193.438 347.284C192.867 345.831 192.279 344.363 191.723 342.895C194.299 343.559 196.917 344.05 199.559 344.363C196.097 335.568 192.712 326.248 189.482 316.757C183.077 298.159 177.665 279.234 173.267 260.061C172.695 257.604 172.294 255.223 171.814 252.998C170.686 252.598 169.603 252.079 168.584 251.452C167.488 250.817 166.454 250.082 165.493 249.257H165.415C165.026 251.081 164.536 252.882 163.947 254.651L163.808 255.1C163.39 254.899 162.958 254.651 162.494 254.404C161.397 253.77 160.362 253.036 159.403 252.209H159.31C158.941 254.042 158.456 255.849 157.857 257.619C153.884 270.833 148.445 283.561 141.643 295.566C138.594 301.08 135.234 306.416 131.58 311.548C140.684 321.123 151.072 329.389 162.448 336.109ZM101.223 256.8C101.378 257.125 101.548 257.449 101.718 257.774C106.445 254.345 111.403 251.247 116.556 248.5C117.685 247.866 118.844 247.263 120.003 246.676C127.832 243.164 136 240.46 144.378 238.607C146.001 238.236 147.609 237.958 149.016 237.773C148.79 237.268 148.588 236.752 148.413 236.227L150.468 235.64C151.998 235.283 153.546 235.009 155.106 234.82C154.03 232.204 153.378 229.434 153.173 226.613C151.411 225.778 149.464 224.742 147.532 223.722C132.244 215.221 117.556 205.683 103.572 195.174C96.3077 189.779 89.1357 184.045 82.4429 178.588C82.4429 180.366 82.3502 182.097 82.3502 183.859C82.3502 184.709 82.3502 185.559 82.3502 186.425C80.279 184.771 78.2541 183.117 76.2602 181.51C76.2602 183.287 76.2602 185.003 76.2602 186.765C76.2602 210.522 83.5094 236.613 95.5349 260.68C97.3588 259.381 99.2548 258.098 101.223 256.831V256.8Z" fill="white"/>
<path d="M91.2688 98.0736C110.482 90.3452 135.352 93.4366 162.494 109.11C223.471 144.321 272.902 229.92 272.902 300.326C272.902 335.877 260.243 360.809 239.855 372.185C219.947 383.283 192.635 381.459 162.494 364.055C101.532 328.86 52.1011 243.26 52.1011 172.854C52.1011 133.825 67.3107 107.657 91.2688 98.0736ZM148.459 236.134C147.727 234.008 147.28 231.794 147.13 229.55C145.352 228.699 143.405 227.679 141.473 226.644C126.186 218.146 111.498 208.613 97.5133 198.11C92.4125 194.308 87.3582 190.382 82.4583 186.44C80.3871 184.786 78.3623 183.133 76.3683 181.525C76.3683 183.303 76.3683 185.018 76.3683 186.78C76.3683 210.538 83.6176 236.629 95.643 260.695C97.436 259.366 99.3166 258.067 101.285 256.8C104.237 254.914 107.328 253.106 110.482 251.375C113.635 249.643 116.819 248.067 120.065 246.645C127.894 243.133 136.062 240.429 144.44 238.576C146.063 238.205 147.671 237.927 149.077 237.742C148.845 237.227 148.639 236.701 148.459 236.165V236.134ZM90.1868 140.796C96.3695 147.566 102.939 154.955 109.477 162.73C122.65 178.312 135.031 194.546 146.573 211.372C148.119 213.691 149.665 215.932 150.994 218.034C152.477 216.933 154.32 216.43 156.157 216.628C155.693 214.989 155.214 213.273 154.75 211.48C154.564 210.816 154.41 210.136 154.224 209.456C149.447 191.147 145.788 172.564 143.266 153.811C141.967 144.784 140.993 135.835 140.267 127.534C128.133 124.258 117.082 124.598 107.653 128.153C100.826 130.768 94.8038 135.128 90.1868 140.796ZM162.463 254.45C161.366 253.817 160.331 253.082 159.372 252.256H159.279C158.91 254.088 158.425 255.895 157.826 257.665C153.853 270.879 148.414 283.607 141.612 295.612C138.563 301.126 135.203 306.462 131.549 311.594C140.665 321.184 151.069 329.46 162.463 336.186C173.36 342.462 183.84 346.202 193.454 347.362C192.882 345.909 192.295 344.44 191.738 342.972C188.863 335.475 186.066 327.67 183.361 319.787C176.964 301.191 171.551 282.272 167.146 263.106C166.59 260.633 166.188 258.268 165.693 256.027C165.032 255.822 164.391 255.558 163.777 255.239C163.344 254.945 162.834 254.698 162.447 254.45H162.463ZM248.712 286.353C248.712 284.576 248.619 282.752 248.619 280.99C241.927 278.702 234.708 276.09 227.397 273.122C212.226 266.873 197.561 259.463 183.531 250.957L182.155 250.092C180.609 249.133 179.172 248.206 177.796 247.279C177.761 249.411 177.088 251.483 175.864 253.229C177.41 255.146 178.955 257.279 180.609 259.52C190.873 273.54 203.3 292.351 214.491 311.502C219.823 320.436 224.816 329.385 229.422 337.995C231.227 336.467 232.903 334.792 234.43 332.987C243.426 322.43 248.697 306.586 248.697 286.353H248.712ZM184.643 153.239C184.01 160.689 183.098 168.526 181.753 176.053C179.491 190.689 175.81 205.07 170.763 218.992C170.13 220.77 169.419 222.408 168.831 223.923C170.862 226.152 172.602 228.63 174.009 231.296C175.369 230.786 176.822 230.23 178.368 229.75C190.444 226.147 202.957 224.217 215.557 224.016C221.983 223.752 228.419 223.86 234.832 224.341C234.368 223.243 233.889 222.13 233.394 221.048C223.001 197.573 208.282 176.263 190.007 158.232C188.235 156.511 186.442 154.847 184.628 153.239H184.643Z" fill="#F42355"/>
<path d="M175.849 253.229C177.394 255.146 178.94 257.279 180.594 259.52C190.857 273.54 203.284 292.351 214.475 311.502C219.808 320.436 224.8 329.385 229.407 337.995C231.212 336.467 232.887 334.792 234.415 332.987C230.118 325.011 225.496 316.803 220.612 308.58C209.405 289.445 196.978 270.634 186.73 256.599C185.185 254.373 183.515 252.225 181.97 250.324L182.14 250.092C180.594 249.133 179.156 248.206 177.781 247.279C177.745 249.411 177.072 251.483 175.849 253.229Z" fill="#F42355"/>
<path opacity="0.3" d="M175.849 253.229C177.394 255.146 178.94 257.279 180.594 259.52C190.857 273.54 203.284 292.351 214.475 311.502C219.808 320.436 224.8 329.385 229.407 337.995C231.212 336.467 232.887 334.792 234.415 332.987C230.118 325.011 225.496 316.803 220.612 308.58C209.405 289.445 196.978 270.634 186.73 256.599C185.185 254.373 183.515 252.225 181.97 250.324L182.14 250.092C180.594 249.133 179.156 248.206 177.781 247.279C177.745 249.411 177.072 251.483 175.849 253.229Z" fill="black"/>
<path d="M131.487 311.548C140.603 321.137 151.007 329.414 162.401 336.14C173.298 342.415 183.778 346.156 193.392 347.315C192.82 345.862 192.233 344.394 191.676 342.925C183.537 340.775 175.734 337.509 168.491 333.219C157.101 326.488 146.697 318.212 137.577 308.627C141.242 303.5 144.612 298.169 147.671 292.66C154.38 280.78 159.766 268.2 163.73 255.146C163.313 254.945 162.88 254.698 162.417 254.45C161.32 253.817 160.285 253.082 159.325 252.256H159.232C158.863 254.088 158.378 255.895 157.78 257.666C153.806 270.879 148.368 283.607 141.565 295.612C138.51 301.11 135.145 306.431 131.487 311.548Z" fill="#F42355"/>
<path opacity="0.2" d="M131.487 311.548C140.603 321.137 151.007 329.414 162.401 336.14C173.298 342.415 183.778 346.156 193.392 347.315C192.82 345.862 192.233 344.394 191.676 342.925C183.537 340.775 175.734 337.509 168.491 333.219C157.101 326.488 146.697 318.212 137.577 308.627" fill="black"/>
<path opacity="0.3" d="M141.55 295.566C148.352 283.561 153.791 270.833 157.764 257.619C158.363 255.848 158.848 254.042 159.217 252.209H159.31C160.27 253.036 161.305 253.77 162.401 254.404C162.865 254.651 163.298 254.899 163.715 255.1C159.75 268.154 154.365 280.734 147.655 292.613C144.597 298.123 141.227 303.454 137.562 308.58L131.379 311.502C135.069 306.387 138.465 301.066 141.55 295.566Z" fill="black"/>
<path d="M120.003 246.676C127.832 243.164 136 240.46 144.378 238.607C146.001 238.236 147.609 237.958 149.015 237.773C148.79 237.267 148.588 236.752 148.413 236.227C138.571 238.602 129.038 242.108 120.003 246.676Z" fill="#F42355"/>
<path d="M76.2756 186.811C76.2756 210.569 83.5249 236.66 95.5503 260.726C97.3433 259.397 99.2239 258.098 101.192 256.831C89.8931 233.908 82.9066 209.193 82.4275 186.471C80.3563 184.817 78.3314 183.164 76.3375 181.556C76.3684 183.334 76.2756 185.049 76.2756 186.811Z" fill="#F42355"/>
<path opacity="0.3" d="M120.003 246.676C127.832 243.164 136 240.46 144.378 238.607C146.001 238.236 147.609 237.958 149.015 237.773C148.79 237.267 148.588 236.752 148.413 236.227C138.571 238.602 129.038 242.108 120.003 246.676Z" fill="black"/>
<path opacity="0.2" d="M76.2756 186.811C76.2756 210.569 83.5249 236.66 95.5503 260.726C97.3433 259.397 99.2239 258.098 101.192 256.831C89.8931 233.908 82.9066 209.193 82.4275 186.471C80.3563 184.817 78.3314 183.164 76.3375 181.556C76.3684 183.334 76.2756 185.049 76.2756 186.811Z" fill="black"/>
<path d="M90.1867 140.796C96.3695 147.566 102.939 154.955 109.477 162.73C122.65 178.312 135.031 194.546 146.573 211.372C148.119 213.691 149.665 215.932 150.994 218.034C152.477 216.933 154.32 216.43 156.157 216.628C155.693 214.989 155.214 213.273 154.75 211.48L152.694 208.389C141.157 191.565 128.776 175.335 115.598 159.762C109.06 152.033 102.537 144.568 96.3231 137.829C99.5077 133.967 103.348 130.696 107.668 128.168C100.838 130.777 94.8099 135.131 90.1867 140.796Z" fill="#F42355"/>
<path opacity="0.3" d="M90.1867 140.796C96.3695 147.566 102.939 154.955 109.477 162.73C122.65 178.312 135.031 194.546 146.573 211.372C148.119 213.691 149.665 215.932 150.994 218.034C152.477 216.933 154.32 216.43 156.157 216.628C155.693 214.989 155.214 213.273 154.75 211.48L152.694 208.389C141.157 191.565 128.776 175.335 115.598 159.762C109.06 152.033 102.537 144.568 96.3231 137.829C99.5077 133.967 103.348 130.696 107.668 128.168C100.838 130.777 94.8099 135.131 90.1867 140.796Z" fill="black"/>
<path d="M168.816 223.923C170.846 226.152 172.586 228.63 173.994 231.296C175.354 230.786 176.807 230.23 178.353 229.75C190.428 226.147 202.941 224.217 215.542 224.016C221.968 223.752 228.403 223.86 234.816 224.341C234.353 223.243 233.874 222.13 233.379 221.048C229.484 220.909 225.558 220.925 221.663 221.048C209.063 221.265 196.551 223.199 184.474 226.798C182.928 227.308 181.49 227.865 180.115 228.344C178.713 225.677 176.978 223.2 174.952 220.971C175.524 219.425 176.25 217.88 176.9 216.04C181.924 202.107 185.594 187.723 187.859 173.086C188.709 168.186 189.404 163.147 189.992 158.154C188.23 156.454 186.442 154.8 184.628 153.193C183.994 160.643 183.082 168.48 181.738 176.007C179.475 190.643 175.795 205.023 170.748 218.946C170.114 220.77 169.403 222.408 168.816 223.923Z" fill="#F42355"/>
<path opacity="0.3" d="M174.952 221.017C176.978 223.246 178.713 225.724 180.115 228.39C181.49 227.865 182.943 227.308 184.474 226.845C196.552 223.251 209.063 221.322 221.663 221.11C225.558 220.94 229.484 220.925 233.379 221.11C233.874 222.192 234.353 223.305 234.816 224.402C228.403 223.922 221.968 223.814 215.542 224.078C202.925 224.243 190.391 226.142 178.291 229.72C176.745 230.23 175.292 230.786 173.932 231.265C172.524 228.599 170.784 226.121 168.754 223.892L174.952 221.017Z" fill="black"/>
<path opacity="0.2" d="M174.952 221.017C175.524 219.472 176.25 217.926 176.9 216.087C181.924 202.154 185.593 187.769 187.859 173.132C188.709 168.232 189.404 163.193 189.992 158.201C188.229 156.501 186.442 154.847 184.628 153.239C183.994 160.689 183.082 168.526 181.738 176.053C179.475 190.689 175.795 205.07 170.748 218.993C170.114 220.77 169.403 222.408 168.816 223.923" fill="black"/>
<path d="M263.844 546.724H277.647L275.437 560.187C275.349 560.547 275.183 560.883 274.951 561.172C274.719 561.46 274.425 561.694 274.092 561.856C273.058 562.374 271.918 562.644 270.761 562.644C269.605 562.644 268.464 562.374 267.43 561.856C267.095 561.697 266.8 561.464 266.568 561.175C266.335 560.886 266.17 560.548 266.086 560.187L263.844 546.724Z" fill="#FAFAFA"/>
<path d="M270.738 550.372C266.914 550.372 263.813 548.579 263.813 546.368C263.813 544.157 266.914 542.365 270.738 542.365C274.562 542.365 277.663 544.157 277.663 546.368C277.663 548.579 274.562 550.372 270.738 550.372Z" fill="#FAFAFA"/>
<path d="M334.049 505.887H347.852L345.642 519.35C345.553 519.707 345.387 520.041 345.154 520.327C344.922 520.613 344.629 520.844 344.297 521.004C343.265 521.529 342.124 521.803 340.966 521.803C339.808 521.803 338.667 521.529 337.635 521.004C337.303 520.844 337.011 520.613 336.778 520.327C336.546 520.041 336.379 519.707 336.291 519.35L334.049 505.887Z" fill="#FAFAFA"/>
<path d="M345.858 502.687C348.563 504.233 348.563 506.783 345.858 508.345C344.34 509.116 342.661 509.518 340.958 509.518C339.256 509.518 337.577 509.116 336.059 508.345C333.338 506.799 333.338 504.248 336.059 502.687C337.577 501.916 339.256 501.514 340.958 501.514C342.661 501.514 344.34 501.916 345.858 502.687Z" fill="#FAFAFA"/>
<path d="M63.6937 445.451H77.4967L75.3018 458.914C75.22 459.274 75.0579 459.611 74.8278 459.9C74.5977 460.189 74.3053 460.422 73.9725 460.583C72.938 461.108 71.7941 461.382 70.6339 461.382C69.4736 461.382 68.3297 461.108 67.2952 460.583C66.9621 460.421 66.6688 460.187 66.4364 459.898C66.204 459.61 66.0381 459.274 65.9504 458.914L63.6937 445.451Z" fill="#FAFAFA"/>
<path d="M75.5028 442.267C78.2077 443.812 78.2077 446.363 75.5028 447.924C73.9845 448.695 72.3057 449.097 70.6029 449.097C68.9001 449.097 67.2213 448.695 65.7031 447.924C62.9982 446.378 62.9982 443.828 65.7031 442.267C67.2213 441.495 68.9001 441.094 70.6029 441.094C72.3057 441.094 73.9845 441.495 75.5028 442.267Z" fill="#FAFAFA"/>
<path d="M133.914 404.614H147.717L145.507 418.077C145.418 418.434 145.252 418.768 145.019 419.054C144.787 419.34 144.494 419.571 144.162 419.73C143.128 420.256 141.984 420.53 140.823 420.53C139.663 420.53 138.519 420.256 137.485 419.73C137.152 419.573 136.86 419.343 136.63 419.057C136.399 418.77 136.237 418.435 136.155 418.077L133.914 404.614Z" fill="#FAFAFA"/>
<path d="M145.708 401.414C148.413 402.96 148.413 405.51 145.708 407.087C144.19 407.858 142.511 408.26 140.808 408.26C139.105 408.26 137.426 407.858 135.908 407.087C133.203 405.541 133.203 402.991 135.908 401.414C137.426 400.643 139.105 400.241 140.808 400.241C142.511 400.241 144.19 400.643 145.708 401.414Z" fill="#FAFAFA"/>
<path d="M52.6886 374.751V439.036C52.8179 441.358 53.491 443.616 54.6535 445.63C55.8161 447.644 57.4356 449.356 59.3814 450.629L64.8377 453.72H64.9305C67.5218 454.993 70.425 455.492 73.2926 455.158L239.299 547.157C239.497 549.389 240.194 551.548 241.339 553.475C242.484 555.401 244.048 557.045 245.915 558.286L251.355 561.377C251.515 561.483 251.687 561.571 251.865 561.64C251.955 561.692 252.048 561.739 252.144 561.779H252.221C255.52 563.15 259.196 563.32 262.608 562.258C263.003 562.139 263.391 561.995 263.767 561.825L263.953 561.748C264.231 561.624 264.494 561.485 264.741 561.346L351.871 511.25C353.818 509.979 355.438 508.266 356.601 506.253C357.763 504.239 358.436 501.98 358.564 499.658V391.862C358.432 389.541 357.758 387.283 356.596 385.27C355.434 383.257 353.815 381.544 351.871 380.269L159.851 269.335C157.777 268.283 155.484 267.735 153.158 267.735C150.832 267.735 148.539 268.283 146.465 269.335L141.009 272.427C139.014 273.733 137.301 275.427 135.974 277.407C134.646 279.388 133.73 281.616 133.281 283.958L128.025 323.419L59.366 363.066C57.4108 364.349 55.7867 366.077 54.6263 368.108C53.4659 370.139 52.8019 372.415 52.6886 374.751Z" fill="#37474F"/>
<path d="M141.01 272.473L146.45 269.381C148.524 268.329 150.817 267.781 153.143 267.781C155.469 267.781 157.762 268.329 159.836 269.381L351.872 380.269C352.274 380.501 352.691 380.794 352.567 380.702C355.79 383.133 357.924 386.738 358.503 390.733C358.008 387.317 355.226 386.096 351.887 387.997L346.431 391.089C344.357 392.141 342.064 392.689 339.738 392.689C337.412 392.689 335.119 392.141 333.045 391.089L141.01 280.139C137.315 278.068 137.315 274.606 141.01 272.473Z" fill="#455A64"/>
<path d="M52.6884 374.751V439.036C52.8178 441.358 53.4908 443.616 54.6534 445.63C55.8159 447.644 57.4354 449.356 59.3813 450.629L64.8375 453.72H64.9303C67.342 454.971 70.0608 455.507 72.7669 455.266C74.6766 455.154 76.5388 454.627 78.2232 453.72L140.174 418.03C142.12 416.757 143.74 415.045 144.902 413.031C146.065 411.018 146.738 408.759 146.867 406.438V342.075C146.74 339.753 146.068 337.494 144.905 335.48C143.743 333.465 142.122 331.754 140.174 330.483L128.041 323.465L59.3813 363.112C57.4293 364.389 55.8061 366.109 54.6432 368.131C53.4803 370.154 52.8106 372.421 52.6884 374.751Z" fill="#263238"/>
<path d="M128.041 323.465L140.174 330.483C143.853 332.6 143.853 336.078 140.174 338.211L78.2232 373.978C76.2765 375.25 74.6563 376.962 73.4937 378.976C72.331 380.99 71.6584 383.249 71.5303 385.571V449.871C71.5303 454.122 68.5163 455.853 64.8375 453.736L59.3813 450.644C57.4371 449.37 55.8189 447.657 54.6566 445.644C53.4942 443.63 52.8202 441.372 52.6884 439.052V374.751C52.8202 372.43 53.4942 370.172 54.6566 368.159C55.8189 366.146 57.4371 364.433 59.3813 363.158L128.041 323.465Z" fill="#455A64"/>
<path d="M71.5304 385.571V449.871C71.5304 454.122 68.5163 455.853 64.8376 453.736L59.3813 450.644C57.4372 449.37 55.8189 447.657 54.6566 445.644C53.4943 443.63 52.8202 441.373 52.6885 439.052V374.751C52.7609 372.406 53.4313 370.118 54.636 368.105L73.4779 378.924C72.2681 380.936 71.5973 383.225 71.5304 385.571Z" fill="#37474F"/>
<path d="M74.3125 455.266C74.9549 456.598 75.7766 457.835 76.7547 458.944C78.6506 460.681 80.7655 462.162 83.0457 463.35L231.199 548.95C232.237 549.475 233.383 549.749 234.546 549.749C235.709 549.749 236.855 549.475 237.892 548.95L259.656 536.383L303.197 511.25C305.22 510.183 306.913 508.584 308.093 506.626C309.274 504.667 309.898 502.424 309.898 500.137C309.898 497.85 309.274 495.607 308.093 493.648C306.913 491.69 305.22 490.091 303.197 489.023L278.466 474.757L259.625 463.937L155.105 403.454C153.03 402.408 150.737 401.863 148.413 401.863C146.088 401.863 143.796 402.408 141.72 403.454L79.7688 439.237C77.8593 440.434 76.2585 442.064 75.0958 443.995C73.9331 445.925 73.2411 448.103 73.076 450.35C73.1285 452.059 73.5504 453.736 74.3125 455.266Z" fill="#263238"/>
<path d="M231.184 534.451L76.4147 445.018C74.5753 443.951 73.076 444.817 73.076 446.95V453.72C73.1398 454.88 73.4752 456.009 74.0551 457.016C74.635 458.023 75.4432 458.879 76.4147 459.516L231.199 548.95C233.039 550.016 234.538 549.151 234.538 547.018V540.248C234.475 539.085 234.138 537.955 233.556 536.948C232.973 535.94 232.16 535.085 231.184 534.451Z" fill="#37474F"/>
<path d="M155.105 370.3L303.197 455.869C305.145 457.14 306.766 458.851 307.929 460.865C309.091 462.88 309.763 465.139 309.89 467.461V481.001C309.763 483.324 309.091 485.583 307.929 487.597C306.766 489.611 305.145 491.323 303.197 492.594L241.231 528.361C239.157 529.413 236.864 529.962 234.538 529.962C232.212 529.962 229.919 529.413 227.845 528.361L79.7688 442.761C77.8221 441.489 76.202 439.777 75.0393 437.763C73.8767 435.75 73.2041 433.49 73.076 431.169V417.613C73.2029 415.291 73.8749 413.031 75.0377 411.017C76.2005 409.003 77.8213 407.291 79.7688 406.02L141.72 370.253C143.798 369.208 146.092 368.668 148.418 368.676C150.744 368.684 153.035 369.24 155.105 370.3Z" fill="#37474F"/>
<path d="M234.538 500.956V529.969C236.864 530.032 239.168 529.5 241.231 528.423L303.197 492.656C305.145 491.385 306.766 489.673 307.929 487.659C309.091 485.645 309.763 483.385 309.89 481.063V467.492C309.765 465.305 309.162 463.173 308.123 461.245C307.084 459.317 305.635 457.64 303.878 456.332C306.876 458.481 306.644 461.634 303.197 463.628L241.231 499.395C239.169 500.476 236.866 501.013 234.538 500.956Z" fill="#263238"/>
<path d="M227.845 499.364L79.7689 413.795C76.0747 411.662 76.0747 408.2 79.7689 406.067L141.72 370.3C143.794 369.247 146.087 368.699 148.413 368.699C150.738 368.699 153.031 369.247 155.106 370.3L303.198 455.869C306.892 458.002 306.892 461.464 303.198 463.597L241.231 499.364C239.157 500.416 236.864 500.965 234.538 500.965C232.212 500.965 229.919 500.416 227.845 499.364Z" fill="#455A64"/>
<path d="M170.856 371.119L222.204 372.525L222.776 316.726C222.868 313.356 222.296 310.001 221.091 306.853C219.887 303.704 218.073 300.824 215.755 298.376C213.437 295.929 210.659 293.962 207.58 292.589C204.502 291.216 201.183 290.462 197.813 290.372C194.442 290.28 191.086 290.852 187.937 292.056C184.788 293.261 181.906 295.074 179.458 297.392C177.009 299.71 175.041 302.487 173.666 305.566C172.291 308.645 171.535 311.964 171.443 315.335L170.856 371.119Z" fill="#263238"/>
<path d="M185.107 344.811C181.459 344.394 176.235 341.967 170.856 351.999C165.477 362.03 155.106 383.531 155.106 383.531L144.796 371.814L136.882 378.213C136.882 378.213 148.753 396.221 152.169 399.621C154.874 402.311 158.089 402.713 161.597 398.199C165.724 392.959 178.739 371.814 178.739 371.814L185.107 344.811Z" fill="#FFA8A7"/>
<path d="M111.038 375.787C110.882 375.59 110.785 375.353 110.756 375.104C110.728 374.854 110.77 374.602 110.878 374.375C110.986 374.148 111.155 373.956 111.366 373.82C111.577 373.685 111.823 373.611 112.074 373.607C112.253 373.608 112.431 373.645 112.596 373.717C112.761 373.788 112.909 373.893 113.032 374.025C113.032 373.886 113.032 373.746 113.032 373.607C113.032 373.074 113.137 372.546 113.342 372.054C113.546 371.562 113.846 371.115 114.224 370.738C114.601 370.362 115.05 370.064 115.543 369.861C116.036 369.659 116.564 369.556 117.097 369.558C117.797 369.554 118.485 369.735 119.091 370.083C118.977 369.814 118.93 369.52 118.956 369.229C118.983 368.937 119.08 368.657 119.241 368.412C119.401 368.168 119.62 367.966 119.877 367.826C120.134 367.687 120.421 367.612 120.714 367.61C121.035 367.609 121.35 367.695 121.626 367.857C121.61 367.646 121.61 367.435 121.626 367.224C121.665 366.215 122.032 365.247 122.671 364.466C123.31 363.684 124.186 363.133 125.167 362.895C126.148 362.657 127.18 362.746 128.106 363.148C129.031 363.55 129.801 364.243 130.297 365.122C130.395 364.806 130.591 364.531 130.857 364.335C131.122 364.14 131.444 364.034 131.773 364.034C132.103 364.034 132.424 364.14 132.69 364.335C132.956 364.531 133.152 364.806 133.25 365.122C133.662 364.456 134.281 363.943 135.012 363.661C135.742 363.378 136.545 363.342 137.298 363.557C138.052 363.772 138.714 364.226 139.186 364.852C139.657 365.477 139.912 366.239 139.911 367.023C139.927 367.203 139.927 367.384 139.911 367.564C140.107 367.401 140.344 367.298 140.596 367.267C140.847 367.235 141.103 367.276 141.332 367.385C141.561 367.494 141.755 367.666 141.889 367.881C142.023 368.096 142.093 368.346 142.091 368.599C142.559 368.321 143.092 368.172 143.637 368.167C144.409 368.17 145.154 368.452 145.736 368.96C146.318 369.468 146.698 370.168 146.805 370.933C147.028 370.852 147.263 370.81 147.501 370.81C147.763 370.808 148.023 370.858 148.266 370.957C148.509 371.057 148.73 371.203 148.915 371.389C149.101 371.575 149.248 371.795 149.347 372.038C149.447 372.281 149.497 372.541 149.495 372.804C149.492 373.046 149.451 373.286 149.371 373.515C150.422 373.881 151.307 374.613 151.863 375.578C152.419 376.542 152.609 377.675 152.399 378.768C152.189 379.862 151.593 380.843 150.719 381.533C149.845 382.223 148.752 382.575 147.64 382.526L130.869 393.825L112.924 382.263C112.165 382.262 111.426 382.014 110.821 381.557C110.215 381.099 109.775 380.457 109.567 379.726C109.36 378.996 109.395 378.218 109.669 377.51C109.943 376.802 110.44 376.203 111.084 375.802L111.038 375.787Z" fill="#F5F5F5"/>
<path d="M126.51 388.848L127.098 423.734L123.434 421.632L122.244 386.375L126.51 388.848Z" fill="#FAFAFA"/>
<path d="M122.244 386.375L123.434 421.632L119.802 419.53L117.963 383.917L122.244 386.375Z" fill="#F42355"/>
<path d="M129.617 390.641C129.967 390.832 130.362 390.928 130.761 390.919V425.465C130.364 425.472 129.971 425.381 129.617 425.202L127.098 423.734L126.51 388.848L129.617 390.641Z" fill="#F42355"/>
<path d="M116.185 417.443L113.728 416.021C113.391 415.802 113.105 415.514 112.889 415.175C112.673 414.836 112.532 414.455 112.476 414.058L109.384 378.955L113.681 381.444L116.185 417.443Z" fill="#F42355"/>
<path d="M117.963 383.917L119.802 419.53L116.185 417.443L113.681 381.444L117.963 383.917Z" fill="#FAFAFA"/>
<path d="M135.012 388.848L134.424 423.734L138.072 421.632L139.262 386.375L135.012 388.848Z" fill="#F42355"/>
<path d="M139.262 386.375L138.072 421.632L141.704 419.53L143.544 383.917L139.262 386.375Z" fill="#E0E0E0"/>
<path d="M131.92 390.641C131.575 390.83 131.186 390.926 130.792 390.919V425.465C131.184 425.47 131.571 425.38 131.92 425.202L134.455 423.734L135.012 388.848L131.92 390.641Z" fill="#E0E0E0"/>
<path d="M145.321 417.443L147.779 416.021C148.118 415.803 148.406 415.515 148.625 415.176C148.843 414.838 148.987 414.456 149.046 414.058L152.138 378.955L147.825 381.444L145.321 417.443Z" fill="#E0E0E0"/>
<path d="M143.544 383.917L141.704 419.53L145.321 417.443L147.825 381.444L143.544 383.917Z" fill="#F42355"/>
<path opacity="0.1" d="M135.012 388.848L134.424 423.734L138.072 421.632L139.262 386.375L135.012 388.848Z" fill="black"/>
<path opacity="0.1" d="M143.544 383.917L141.704 419.53L145.321 417.443L147.825 381.444L143.544 383.917Z" fill="black"/>
<path d="M131.657 382.881C131.865 383.167 132.137 383.399 132.451 383.56C132.765 383.721 133.113 383.806 133.466 383.809C134.012 383.822 134.543 383.634 134.958 383.279C135.373 382.924 135.642 382.428 135.713 381.887C135.784 381.345 135.652 380.797 135.343 380.347C135.034 379.897 134.569 379.577 134.038 379.45C134.322 379.823 134.474 380.28 134.471 380.748C134.467 381.336 134.23 381.898 133.813 382.312C133.396 382.726 132.832 382.959 132.245 382.959C132.046 382.965 131.848 382.938 131.657 382.881Z" fill="#E0E0E0"/>
<path d="M129.061 383.036C129.036 383.264 129.067 383.495 129.15 383.709C129.233 383.922 129.367 384.113 129.539 384.265C129.711 384.417 129.916 384.526 130.139 384.582C130.361 384.638 130.594 384.64 130.818 384.588C131.041 384.535 131.249 384.43 131.423 384.281C131.598 384.132 131.734 383.944 131.821 383.731C131.908 383.519 131.942 383.289 131.922 383.06C131.902 382.832 131.827 382.611 131.704 382.418C131.674 382.717 131.55 382.998 131.348 383.221C131.091 383.504 130.732 383.674 130.35 383.695C129.968 383.715 129.594 383.584 129.308 383.33C129.209 383.247 129.125 383.148 129.061 383.036Z" fill="#E0E0E0"/>
<path d="M137.902 372.525C137.649 372.918 137.527 373.38 137.551 373.846C137.575 374.312 137.746 374.759 138.038 375.123C138.33 375.487 138.73 375.75 139.18 375.875C139.63 375.999 140.107 375.979 140.545 375.818C141.001 375.646 141.388 375.329 141.645 374.915C141.902 374.502 142.015 374.015 141.967 373.53C141.712 373.92 141.338 374.218 140.901 374.38C140.629 374.484 140.339 374.534 140.048 374.526C139.757 374.518 139.47 374.452 139.204 374.333C138.939 374.214 138.699 374.043 138.499 373.831C138.3 373.619 138.144 373.37 138.041 373.097C137.973 372.912 137.926 372.721 137.902 372.525Z" fill="#E0E0E0"/>
<path d="M141.349 374.627C141.242 374.83 141.186 375.055 141.186 375.284C141.186 375.513 141.242 375.739 141.349 375.941C141.433 376.111 141.549 376.263 141.692 376.387C141.835 376.512 142 376.607 142.18 376.667C142.36 376.728 142.549 376.752 142.738 376.739C142.927 376.726 143.112 376.675 143.281 376.59C143.562 376.453 143.789 376.228 143.929 375.948C144.069 375.669 144.113 375.352 144.054 375.045C143.934 375.282 143.75 375.481 143.524 375.621C143.297 375.76 143.037 375.834 142.771 375.834C142.505 375.834 142.244 375.76 142.018 375.621C141.791 375.481 141.608 375.282 141.488 375.045C141.415 374.916 141.368 374.774 141.349 374.627Z" fill="#E0E0E0"/>
<path d="M118.365 377.842C118.343 378.198 118.408 378.553 118.552 378.878C118.697 379.204 118.917 379.49 119.195 379.712C119.473 379.935 119.8 380.088 120.149 380.158C120.498 380.228 120.859 380.213 121.201 380.114C121.543 380.016 121.857 379.837 122.116 379.593C122.374 379.348 122.571 379.045 122.688 378.709C122.805 378.373 122.84 378.013 122.79 377.661C122.74 377.308 122.605 376.973 122.399 376.683C122.364 377.153 122.186 377.601 121.889 377.966C121.516 378.412 120.982 378.692 120.403 378.747C119.825 378.802 119.248 378.627 118.797 378.26C118.633 378.143 118.488 378.002 118.365 377.842Z" fill="#E0E0E0"/>
<path d="M115.969 376.822C115.944 377.05 115.975 377.281 116.058 377.495C116.141 377.709 116.275 377.9 116.447 378.052C116.619 378.204 116.824 378.312 117.047 378.368C117.269 378.424 117.502 378.426 117.726 378.374C117.949 378.322 118.157 378.217 118.331 378.068C118.506 377.919 118.642 377.73 118.729 377.518C118.816 377.305 118.85 377.075 118.83 376.847C118.81 376.618 118.735 376.398 118.612 376.204C118.584 376.468 118.483 376.719 118.321 376.929C118.159 377.14 117.942 377.301 117.694 377.395C117.446 377.49 117.176 377.514 116.915 377.464C116.655 377.415 116.413 377.294 116.216 377.116C116.117 377.034 116.033 376.934 115.969 376.822Z" fill="#E0E0E0"/>
<path d="M122.229 374.38C121.95 374.512 121.722 374.73 121.577 375.002C121.432 375.273 121.377 375.584 121.422 375.889C121.467 376.194 121.609 376.476 121.827 376.694C122.044 376.912 122.326 377.055 122.631 377.1C122.942 377.153 123.263 377.101 123.542 376.953C123.822 376.805 124.045 376.569 124.176 376.281C123.904 376.417 123.595 376.46 123.295 376.405C123.109 376.375 122.93 376.308 122.77 376.209C122.609 376.109 122.47 375.978 122.361 375.824C122.252 375.67 122.174 375.496 122.133 375.312C122.092 375.128 122.087 374.937 122.121 374.751C122.131 374.621 122.167 374.495 122.229 374.38Z" fill="#E0E0E0"/>
<path d="M145.321 368.677C145.321 369.774 143.884 371.289 143.049 372.123C142.214 372.958 139.587 374.318 138.876 375.292C138.165 376.266 137.145 376.204 136.851 374.627C136.557 373.051 139.2 370.269 139.262 369.434C139.324 368.599 135.862 368.676 133.667 369.511C131.472 370.346 129.123 374.272 128.272 376.204C127.422 378.136 122.09 377.982 122.244 372.433C122.399 366.884 125.15 364.256 128.195 362.834C131.567 361.408 135.297 361.057 138.876 361.829C142.292 362.602 146.032 365.384 147.825 370.825C147.468 370.755 147.098 370.787 146.759 370.918C146.696 370.462 146.535 370.026 146.287 369.639C146.039 369.252 145.709 368.923 145.321 368.677Z" fill="#FFA8A7"/>
<path d="M246.038 361.025C241.293 359.294 215.001 348.026 206.098 348.196L205.139 370.068L233.425 382.912L246.038 361.025Z" fill="#E0E0E0"/>
<path d="M136.743 485.793C137.639 486.736 138.659 487.818 138.551 489.008C138.214 491.524 137.094 493.871 135.352 495.716C132.879 498.39 131.24 503.445 130.715 506.984C130.189 510.524 129.942 519.35 125.537 522.781C121.131 526.213 110.451 528.006 110.451 521.56C110.451 515.115 123.203 490.276 123.203 490.276L136.743 485.793Z" fill="#263238"/>
<path d="M130.823 489.935C129.041 494.459 127.599 499.109 126.51 503.847C125.428 509.025 123.898 512.672 121.255 514.064C118.612 515.455 114.67 515.207 116.154 511.683C117.638 508.159 123.28 490.306 123.28 490.306L130.823 489.935Z" fill="#F28F8F"/>
<path d="M164.952 401.754C164.952 401.754 143.961 411.353 133.76 416.84C123.558 422.327 113.836 427.66 111.811 432.096C109.662 436.733 110.265 447.893 111.332 458.589C112.398 469.285 114.794 488.498 114.794 488.498L144.688 443.673L174.72 423.827L164.952 401.754Z" fill="#F42355"/>
<path opacity="0.1" d="M126.17 448.944C129.123 442.081 135.553 437.521 141.627 433.796C146.419 430.828 158.367 423.873 163.05 421.152C162.114 418.808 161.591 416.318 161.505 413.795C161.505 413.795 162.973 417.165 164.704 420.21L165.956 422.265L135.197 445.219L114.068 482.949C114.068 482.949 123.218 455.729 126.17 448.944Z" fill="black"/>
<path d="M112.244 522.039C113.109 522.611 112.986 524.744 112.908 526.321C112.831 527.897 113.944 529.938 111.672 532.349C109.4 534.76 105.566 534.977 102.398 538.284C99.2291 541.592 94.5302 547.667 85.998 548.115C77.4659 548.563 71.6077 544.823 70.4639 542.118C69.3201 539.413 71.0513 537.311 76.8167 535.131C82.9994 532.813 84.6687 532.133 84.6687 532.133L112.244 522.039Z" fill="#263238"/>
<path d="M106.061 503.661C106.061 503.661 100.311 514.048 97.0806 518.732C93.4945 523.587 89.1832 527.862 84.2978 531.406C83.2158 532.225 80.8509 533.694 79.9699 534.358C79.7585 534.474 79.5772 534.638 79.4404 534.837C79.3036 535.035 79.2152 535.263 79.1821 535.502C79.1491 535.741 79.1724 535.984 79.2501 536.212C79.3278 536.44 79.4579 536.647 79.6298 536.816C81.0518 538.887 88.5175 540.85 93.4018 538.563C98.2862 536.275 103.696 531.097 106.741 529.057C108.287 528.052 109.709 527.078 110.775 526.352C111.28 526.016 111.688 525.554 111.959 525.012C112.23 524.469 112.355 523.866 112.321 523.26C112.321 522.905 112.321 522.503 112.321 522.024C112.321 519.473 117.53 510.122 117.53 510.122L106.061 503.661Z" fill="#FFA8A7"/>
<path d="M211.399 413.61C211.307 422.142 210.889 426.902 206.407 434.693C201.924 442.483 190.95 447.398 178.136 451.695C167.471 455.281 151.86 460.397 148.675 461.062C145.491 461.727 144.919 463.396 144.193 468.914C143.466 474.432 139.772 482.918 131.441 492.795C125.388 500.124 119.738 507.776 114.516 515.717C114.516 515.717 105.814 515.717 102.49 509.921C102.49 509.921 126.711 452.731 130.591 446.177C134.471 439.623 165.925 422.188 165.925 422.188C165.925 422.188 165.4 410.364 164.982 401.754L211.399 413.61Z" fill="#F42355"/>
<path d="M206.113 348.196L213.687 351.999C213.687 351.999 208.463 357.238 209.9 370.114C210.905 379.234 212.991 380.022 217.628 382.588C211.446 396.592 211.446 417.211 211.446 417.211C211.446 417.211 200.549 423.054 180.748 417.427C163.344 412.497 165.075 401.754 165.075 401.754L172.556 395.989L174.241 382.356C174.241 382.356 168.352 376.436 170.902 365.894C173.453 355.353 185.231 344.811 185.231 344.811H189.868L206.113 348.196Z" fill="#FAFAFA"/>
<path d="M167.749 409.977C176.606 413.285 189.389 412.759 195.417 409.977C203.887 406.067 207.427 395.324 206.731 388.477C205.588 377.301 206.53 369.743 209.204 362.818H209.792C209.57 365.242 209.601 367.682 209.885 370.099C210.889 379.218 212.976 380.006 217.613 382.572C211.817 396.236 211.43 417.196 211.43 417.196C211.43 417.196 200.533 423.038 180.733 417.412C175.107 415.866 170.578 413.347 167.857 409.962L167.749 409.977Z" fill="#F0F0F0"/>
<path d="M181.676 301.439C178.924 302.985 175.385 309.693 175.338 323.991C175.338 336.124 179.125 339.216 181.073 340.128C183.021 341.04 186.838 340.622 190.563 340.128L190.486 345.151C190.486 345.151 183.824 352.447 184.056 355.786C184.288 359.124 192.588 360.84 197.457 357.749C200.979 355.187 204.046 352.052 206.53 348.474L206.901 331.673C206.901 331.673 209.019 333.852 212.79 330.73C215.882 328.149 217.057 323.682 214.753 321.209C214.154 320.618 213.423 320.179 212.621 319.927C211.818 319.675 210.967 319.618 210.138 319.76C209.309 319.902 208.526 320.239 207.853 320.744C207.18 321.248 206.636 321.906 206.268 322.662C201.417 322.332 196.726 320.797 192.619 318.195C189.607 316.457 187.047 314.035 185.146 311.124C183.244 308.213 182.056 304.895 181.676 301.439Z" fill="#FFA8A7"/>
<path d="M188.941 321.317C188.919 321.52 188.938 321.725 188.997 321.921C189.055 322.117 189.152 322.299 189.281 322.457C189.411 322.615 189.57 322.746 189.751 322.842C189.931 322.938 190.128 322.998 190.332 323.017C190.537 323.032 190.744 323.005 190.939 322.939C191.134 322.873 191.314 322.768 191.468 322.631C191.622 322.494 191.747 322.328 191.836 322.142C191.925 321.956 191.976 321.754 191.986 321.549C192.001 321.346 191.976 321.142 191.912 320.948C191.849 320.755 191.748 320.576 191.615 320.422C191.347 320.11 190.966 319.918 190.556 319.887C190.146 319.856 189.74 319.99 189.429 320.258C189.117 320.526 188.925 320.907 188.894 321.317H188.941Z" fill="#263238"/>
<path d="M188.26 331.58L184.69 332.616C184.747 332.853 184.852 333.077 184.997 333.273C185.143 333.469 185.326 333.634 185.537 333.758C185.747 333.882 185.981 333.962 186.223 333.995C186.465 334.027 186.711 334.01 186.947 333.945C187.427 333.795 187.831 333.465 188.076 333.025C188.32 332.585 188.387 332.068 188.26 331.58Z" fill="#F28F8F"/>
<path d="M176.575 316.293L179.666 314.253C179.546 314.04 179.383 313.854 179.188 313.707C178.992 313.56 178.768 313.455 178.53 313.399C178.293 313.342 178.045 313.335 177.805 313.379C177.564 313.422 177.335 313.514 177.131 313.65C176.721 313.938 176.435 314.371 176.332 314.862C176.229 315.353 176.316 315.864 176.575 316.293Z" fill="#263238"/>
<path d="M177.193 319.895C177.179 320.199 177.254 320.501 177.411 320.763C177.567 321.024 177.798 321.234 178.073 321.365C178.348 321.496 178.656 321.543 178.958 321.499C179.26 321.455 179.542 321.324 179.769 321.12C179.996 320.917 180.158 320.651 180.234 320.356C180.31 320.06 180.297 319.749 180.197 319.461C180.097 319.173 179.914 318.922 179.671 318.737C179.428 318.553 179.136 318.445 178.832 318.426C178.627 318.414 178.423 318.442 178.229 318.509C178.036 318.577 177.858 318.681 177.706 318.818C177.553 318.955 177.429 319.12 177.341 319.305C177.254 319.49 177.203 319.69 177.193 319.895Z" fill="#263238"/>
<path d="M184.087 318.457L183.902 328.381L179.125 326.758L184.087 318.457Z" fill="#F28F8F"/>
<path d="M190.563 340.112C194.459 339.71 202.543 337.624 203.887 334.486C203.337 336.075 202.319 337.46 200.966 338.458C198.508 340.437 190.486 342.539 190.486 342.539L190.563 340.112Z" fill="#F28F8F"/>
<path d="M190.486 345.136V342.539C190.486 342.539 184.18 341.411 180.857 342.539C177.819 343.63 175.002 345.258 172.541 347.346C170.713 349.573 169.661 352.335 169.542 355.214C169.62 358.738 173.005 359.959 177.564 357.099C180.022 355.554 180.965 352.586 182.588 351.056C185.621 349.683 188.317 347.662 190.486 345.136Z" fill="#B16668"/>
<path d="M213.672 351.999C220.55 355.167 224.708 357.192 226.949 367.455C229.19 377.719 238.217 426.732 238.217 426.732L227.521 430.148C227.521 430.148 219.653 405.835 217.428 397.689C215.202 389.543 210.843 377.317 209.885 370.099C208.926 362.88 208.153 357.903 213.672 351.999Z" fill="#FFA8A7"/>
<path d="M216.206 559.275H204.552V539.335H216.206V559.275Z" fill="#B16668"/>
<path d="M184.767 542.952L173.128 543.354L172.541 522.256L184.18 521.854L184.767 542.952Z" fill="#B16668"/>
<path d="M204.567 554.05V551.979C203.346 552.52 197.844 564.159 192.82 568.75C188.832 572.382 181.799 577.375 182 580.822C182.232 585.289 188.585 587.267 194.072 585.969C198.354 584.964 204.475 582.367 207.411 579.199C210.348 576.03 211.291 571.872 212.837 569.801C214.382 567.73 217.891 565.411 218.726 563C219.174 561.686 218.633 558.796 217.999 556.369C217.366 553.942 216.778 551.655 216.005 551.871V553.247C214.208 554.668 211.975 555.427 209.684 555.395C207.782 555.442 204.567 555.457 204.567 554.05Z" fill="#263238"/>
<path d="M173.004 539.768C172.402 539.768 171.907 540.634 170.578 542.087C168.214 544.071 165.581 545.711 162.757 546.956C158.398 549.135 146.975 552.072 143.142 553.788C140.746 554.87 141.349 558.595 144.688 560.681C147.223 562.227 155.291 563.773 162.463 562.15C166.389 561.269 172.34 558.564 175.246 558.1C178.445 557.605 184.319 556.987 186.699 555.349C189.08 553.71 188.121 550.202 187.457 547.188C186.715 543.911 185.664 538.872 184.582 539.104V540.139C183.175 542.257 176.05 543.122 172.974 541.561L173.004 539.768Z" fill="#263238"/>
<path d="M274.911 446.718C271.727 461.371 261.804 469.903 243.89 477.044C229.654 482.671 216.191 487.447 216.191 487.447C217.91 494.858 218.802 502.437 218.85 510.045C218.958 521.406 216.794 546.569 216.794 546.569C216.794 546.569 209.065 549.831 203.748 546.446C203.748 546.446 200.873 526.939 198.678 512.719C195.262 490.538 192.851 479.363 193.856 475.19C194.474 472.577 203.717 466.07 211.848 460.506L187.658 471.604C188.139 476.483 188.345 481.385 188.276 486.288C187.874 501.744 184.767 532.086 184.767 532.086C184.767 532.086 176.297 535.873 172.093 532.596C172.093 532.596 162.308 460.336 164.055 455.096C166.095 448.913 172.726 446.548 205.294 432.683C212.806 429.468 224.043 425.759 224.043 425.759L274.911 446.718Z" fill="#F42355"/>
<path opacity="0.1" d="M274.911 446.718C271.727 461.371 261.804 469.903 243.89 477.044C229.654 482.671 216.191 487.447 216.191 487.447C217.91 494.858 218.802 502.437 218.85 510.045C218.958 521.406 216.794 546.569 216.794 546.569C216.794 546.569 209.065 549.831 203.748 546.446C203.748 546.446 200.873 526.939 198.678 512.719C195.262 490.538 192.851 479.363 193.856 475.19C194.474 472.577 203.717 466.07 211.848 460.506L187.658 471.604C188.139 476.483 188.345 481.385 188.276 486.288C187.874 501.744 184.767 532.086 184.767 532.086C184.767 532.086 176.297 535.873 172.093 532.596C172.093 532.596 162.308 460.336 164.055 455.096C166.095 448.913 172.726 446.548 205.294 432.683C212.806 429.468 224.043 425.759 224.043 425.759L274.911 446.718Z" fill="black"/>
<path d="M273.876 366.234C277.347 371.89 279.227 378.379 279.317 385.014L281.465 407.767C280.43 426.207 279.456 433.673 276.256 446.873C267.987 455.869 233.224 445.451 224.043 425.82C224.043 425.82 228.464 400.1 229.314 382.541C229.917 370.083 234.105 361.257 246.038 360.995L261.34 363.097L273.876 366.234Z" fill="#F5F5F5"/>
<path d="M229.061 338.769C222.518 332.225 222.518 321.617 229.061 315.073C235.604 308.53 246.213 308.53 252.757 315.073C259.3 321.617 259.3 332.225 252.757 338.769C246.213 345.312 235.604 345.312 229.061 338.769Z" fill="#263238"/>
<path d="M268.311 336.928C268.311 336.928 265.746 348.985 264.71 350.978C264.037 352.184 262.933 353.09 261.619 353.513L261.789 345.028L268.311 336.928Z" fill="#263238"/>
<path d="M265.081 319.632C265.98 319.526 266.892 319.627 267.746 319.927C268.601 320.227 269.376 320.718 270.012 321.363C272.129 323.527 270.939 330.297 268.311 336.928L263.473 337.469L265.081 319.632Z" fill="#263238"/>
<path d="M262.02 337.485C262.994 338.057 264.37 336.202 265.576 334.95C266.781 333.698 270.676 331.982 272.624 336.094C274.571 340.205 270.908 345.8 267.832 346.759C262.531 348.428 261.727 345.028 261.727 345.028L261.325 364.148C256.688 369.248 241.138 368.027 244.075 363.638V357.826C241.715 358.202 239.321 358.327 236.934 358.197C233.039 357.594 230.581 354.518 229.407 350.298C227.505 343.513 226.779 338.041 228.386 324.717C230.164 310.111 247.151 309.956 256.332 315.737C265.514 321.518 262.02 337.485 262.02 337.485Z" fill="#B16668"/>
<path d="M262.02 339.108C262.5 339.108 264.354 336.016 265.576 334.95C267.245 333.404 265.081 319.632 265.081 319.632C265.527 318.445 265.618 317.155 265.344 315.917C265.069 314.679 264.441 313.548 263.535 312.661C261.232 310.126 257.352 309.848 250.861 308.828C247.429 308.287 242.22 307.282 238.804 306.679C234.708 305.922 231.323 305.133 228.433 307.622C227.298 308.607 226.496 309.918 226.137 311.376C225.777 312.835 225.877 314.369 226.423 315.768C227.262 317.5 228.734 318.845 230.535 319.524C230.535 319.524 232.312 321.069 238.526 321.858C244.258 322.291 250.018 322.183 255.73 321.533C257.522 321.286 257.909 323.079 258.821 327.809C259.671 331.982 260.382 339.077 262.02 339.108Z" fill="#263238"/>
<path d="M265.081 320.652L270.939 317.561C270.757 317.161 270.496 316.802 270.172 316.506C269.848 316.21 269.467 315.983 269.052 315.838C268.637 315.694 268.197 315.635 267.759 315.665C267.321 315.696 266.894 315.815 266.503 316.015C265.712 316.453 265.121 317.182 264.856 318.047C264.591 318.912 264.671 319.846 265.081 320.652Z" fill="#263238"/>
<path d="M244.091 357.826C244.091 357.826 252.793 356.064 255.838 354.456C257.623 353.522 259.088 352.074 260.042 350.298C259.583 352.074 258.774 353.74 257.662 355.198C255.436 358.042 244.091 360.144 244.091 360.144V357.826Z" fill="#9A4A4D"/>
<path d="M246.193 335.305C246.208 335.651 246.326 335.984 246.532 336.262C246.737 336.541 247.021 336.752 247.346 336.869C247.672 336.986 248.024 337.004 248.36 336.92C248.696 336.837 248.999 336.655 249.231 336.399C249.464 336.143 249.615 335.823 249.665 335.481C249.716 335.139 249.664 334.789 249.515 334.477C249.367 334.164 249.129 333.903 248.832 333.725C248.535 333.548 248.192 333.463 247.847 333.481C247.39 333.517 246.965 333.725 246.657 334.065C246.35 334.404 246.183 334.848 246.193 335.305Z" fill="#263238"/>
<path d="M248.99 328.087L252.715 330.143C252.98 329.631 253.037 329.038 252.876 328.486C252.715 327.933 252.348 327.464 251.85 327.175C251.604 327.04 251.333 326.956 251.053 326.929C250.774 326.902 250.492 326.932 250.225 327.018C249.957 327.103 249.71 327.242 249.498 327.426C249.285 327.609 249.113 327.834 248.99 328.087Z" fill="#263238"/>
<path d="M244.879 347.346L240.906 348.892C240.993 349.159 241.133 349.406 241.317 349.617C241.502 349.829 241.727 350.002 241.979 350.124C242.232 350.247 242.507 350.317 242.787 350.331C243.067 350.345 243.348 350.303 243.611 350.206C243.882 350.101 244.13 349.944 244.341 349.744C244.551 349.544 244.72 349.304 244.838 349.039C244.956 348.773 245.02 348.487 245.027 348.196C245.034 347.906 244.984 347.617 244.879 347.346Z" fill="#9A4A4D"/>
<path d="M230.195 329.617L233.595 327.005C233.436 326.776 233.231 326.582 232.995 326.434C232.758 326.286 232.494 326.187 232.218 326.144C231.942 326.101 231.661 326.113 231.39 326.182C231.119 326.25 230.865 326.372 230.643 326.541C230.188 326.899 229.888 327.417 229.805 327.99C229.722 328.562 229.861 329.145 230.195 329.617Z" fill="#263238"/>
<path d="M231.679 334.811C231.694 335.152 231.809 335.482 232.01 335.759C232.211 336.036 232.489 336.248 232.809 336.368C233.129 336.489 233.477 336.512 233.811 336.436C234.145 336.361 234.448 336.188 234.685 335.941C234.922 335.694 235.081 335.383 235.142 335.047C235.203 334.71 235.164 334.363 235.03 334.048C234.896 333.734 234.673 333.465 234.387 333.277C234.102 333.088 233.767 332.987 233.425 332.987C232.954 333.003 232.507 333.203 232.181 333.543C231.855 333.884 231.674 334.339 231.679 334.811Z" fill="#263238"/>
<path d="M240.304 333.404L240.103 343.977L233.843 342.601L240.304 333.404Z" fill="#9A4A4D"/>
<path opacity="0.15" d="M211.848 460.506L225.836 453.009C225.836 453.009 220.132 448.898 219.375 443.549C219.375 443.549 219.035 450.119 221.508 453.009L191.166 470.012L211.848 460.506Z" fill="black"/>
<path d="M258.11 557.652V493.367C258.239 491.045 258.912 488.787 260.075 486.773C261.237 484.759 262.857 483.047 264.803 481.774L333.462 442.143L338.717 402.666C339.167 400.326 340.083 398.101 341.411 396.123C342.739 394.145 344.451 392.454 346.446 391.151L351.887 388.059C355.581 385.942 358.579 387.673 358.579 391.924V499.72C358.452 502.042 357.78 504.301 356.618 506.315C355.455 508.329 353.834 510.041 351.887 511.312L264.849 561.516C261.124 563.649 258.11 561.902 258.11 557.652Z" fill="#263238"/>
<path d="M239.283 482.485V546.786C239.276 546.93 239.276 547.074 239.283 547.218C239.481 549.451 240.179 551.61 241.324 553.536C242.469 555.463 244.032 557.107 245.899 558.347L251.34 561.439C251.5 561.544 251.671 561.633 251.85 561.702C251.939 561.754 252.032 561.801 252.128 561.841H252.205C252.381 561.919 252.562 561.986 252.746 562.042C255.911 563.2 259.367 563.298 262.592 562.32C262.988 562.201 263.375 562.057 263.752 561.887C260.537 563.216 258.048 561.408 258.033 557.559V493.367C258.162 491.045 258.835 488.787 259.997 486.773C261.16 484.759 262.78 483.047 264.725 481.774L276.874 474.757L333.385 442.143L321.236 435.126C319.159 434.082 316.867 433.538 314.543 433.538C312.219 433.538 309.927 434.082 307.85 435.126L258.033 463.891L245.899 470.893C243.967 472.173 242.361 473.889 241.213 475.902C240.064 477.916 239.403 480.17 239.283 482.485Z" fill="#455A64"/>
<path d="M258.11 493.367V557.652C258.11 561.501 260.614 563.309 263.829 561.98C263.452 562.149 263.065 562.294 262.67 562.413C259.444 563.39 255.989 563.293 252.824 562.134C252.639 562.079 252.459 562.012 252.283 561.933H252.205C252.11 561.893 252.017 561.847 251.927 561.794C251.748 561.725 251.577 561.637 251.417 561.532L245.976 558.44C244.11 557.2 242.546 555.556 241.401 553.629C240.256 551.703 239.559 549.544 239.361 547.311C239.353 547.167 239.353 547.023 239.361 546.878V482.485C239.441 480.159 240.117 477.891 241.324 475.901L260.15 486.72C258.915 488.726 258.212 491.014 258.11 493.367Z" fill="#37474F"/>
<path d="M278.915 371.814C283.784 373.545 297.803 403.269 300.833 409.081C303.862 414.892 311.869 432.838 310.308 440.072C308.747 447.305 277.972 462.577 274.912 465.622C271.248 469.301 270.274 471.078 264.787 471.65C260.305 472.129 259.006 475.638 254.709 477.493C250.412 479.347 242.931 476.117 246.255 469.996C250.165 462.762 253.38 461.17 256.951 459.702C261.912 457.662 264.911 457.492 268.311 455.389C271.712 453.287 291.605 434.414 291.605 434.414L281.465 414.645C281.465 414.645 275.282 399.93 274.772 388.662C274.262 377.394 278.915 371.814 278.915 371.814Z" fill="#B16668"/>
<path d="M273.876 366.234C283.15 369.619 287.942 378.924 293.197 389.42C298.452 399.915 303.213 411.229 303.213 411.229C298.026 416.569 291.381 420.262 284.108 421.848L274.123 402.867C274.123 402.867 263.473 382.078 273.876 366.234Z" fill="#E0E0E0"/>
</g>
</svg>
