<svg width="49" height="49" viewBox="0 0 49 49" fill="none" xmlns="http://www.w3.org/2000/svg">
<g clip-path="url(#clip0)">
<path d="M10.7514 19.9369C11.7067 17.0468 13.5503 14.5322 16.0192 12.7518C18.4881 10.9715 21.4562 10.0163 24.5 10.0225C27.9504 10.0225 31.0701 11.2475 33.5201 13.2525L40.6496 6.125C36.3049 2.33771 30.7373 0 24.5 0C14.8429 0 6.52926 5.50842 2.53168 13.5771L10.7514 19.9369Z" fill="#EA4335"/>
<path d="M32.7484 36.7765C30.523 38.2118 27.6973 38.9774 24.5 38.9774C21.4683 38.9836 18.5114 38.0361 16.048 36.2689C13.5846 34.5016 11.7395 32.0043 10.7739 29.1305L2.52557 35.3923C4.54937 39.4884 7.68133 42.935 11.5657 45.3404C15.4501 47.7458 19.9312 49.0137 24.5 49C30.4882 49 36.209 46.8705 40.4944 42.875L32.7504 36.7765H32.7484Z" fill="#34A853"/>
<path d="M40.4944 42.875C44.9759 38.6936 47.8853 32.4706 47.8853 24.5C47.8853 23.0504 47.6627 21.4926 47.3299 20.045H24.5V29.5123H37.6402C36.993 32.6952 35.2514 35.1595 32.7504 36.7765L40.4944 42.875Z" fill="#4A90E2"/>
<path d="M10.7739 29.1305C10.2744 27.6379 10.0206 26.074 10.0225 24.5C10.0225 22.9034 10.2777 21.3701 10.7514 19.9369L2.53166 13.5771C0.850099 16.9717 -0.0167407 20.7117 -6.37924e-06 24.5C-6.37924e-06 28.42 0.908535 32.1154 2.52554 35.3923L10.7739 29.1305Z" fill="#FBBC05"/>
</g>
<defs>
<clipPath id="clip0">
<rect width="49" height="49" fill="white"/>
</clipPath>
</defs>
</svg>
